<svg width="49" height="48" viewBox="0 0 49 48" fill="none" xmlns="http://www.w3.org/2000/svg">
<g clip-path="url(#clip0_7540_120)">
<path d="M29.0001 22.5V1.5L38.0001 8.99999L29.0001 15" stroke="#D92D20" stroke-width="2" stroke-linecap="round" stroke-linejoin="round"/>
<path d="M23.0001 7.5H21.5001C16.3284 7.5 11.3685 9.55446 7.71156 13.2114C4.05461 16.8684 2.00015 21.8283 2.00015 27C2.00015 32.1717 4.05461 37.1316 7.71156 40.7885C11.3685 44.4455 16.3284 46.4999 21.5001 46.4999H47.0001" stroke="#D92D20" stroke-width="2" stroke-linecap="round" stroke-linejoin="round"/>
<path d="M47.0001 7.5H42.5001" stroke="#D92D20" stroke-width="2" stroke-linecap="round" stroke-linejoin="round"/>
<path d="M47.0001 22.5H21.5001C20.3066 22.5 19.1621 22.9741 18.3181 23.818C17.4742 24.6619 17.0001 25.8065 17.0001 27C17.0001 28.1935 17.4742 29.3381 18.3181 30.182C19.1621 31.0259 20.3066 31.5 21.5001 31.5H47.0001" stroke="#D92D20" stroke-width="2" stroke-linecap="round" stroke-linejoin="round"/>
<path d="M42.0721 15H38.0001" stroke="#D92D20" stroke-width="2" stroke-linecap="round" stroke-linejoin="round"/>
<path d="M17.7881 15.6001C15.9467 16.2062 14.2765 17.2429 12.9161 18.6241" stroke="#D92D20" stroke-width="2" stroke-linecap="round" stroke-linejoin="round"/>
<path d="M9.86013 24.1318C9.38411 26.0142 9.38411 27.9855 9.86013 29.8678" stroke="#D92D20" stroke-width="2" stroke-linecap="round" stroke-linejoin="round"/>
<path d="M12.9161 35.376C14.2765 36.7572 15.9467 37.7939 17.7881 38.4" stroke="#D92D20" stroke-width="2" stroke-linecap="round" stroke-linejoin="round"/>
<path d="M24.1041 38.9999H29.9001" stroke="#D92D20" stroke-width="2" stroke-linecap="round" stroke-linejoin="round"/>
<path d="M36.2761 38.9999H42.0721" stroke="#D92D20" stroke-width="2" stroke-linecap="round" stroke-linejoin="round"/>
</g>
<defs>
<clipPath id="clip0_7540_120">
<rect width="47.9999" height="47.9999" fill="white" transform="translate(0.500153)"/>
</clipPath>
</defs>
</svg>
