<svg width="49" height="48" viewBox="0 0 49 48" fill="none" xmlns="http://www.w3.org/2000/svg">
<g clip-path="url(#clip0_7540_1076)">
<path d="M14.8041 44.304C13.3824 45.6288 11.5019 46.3501 9.55893 46.3158C7.61593 46.2815 5.76208 45.4944 4.38795 44.1202C3.01382 42.7461 2.2267 40.8923 2.19242 38.9493C2.15814 37.0062 2.87937 35.1258 4.20417 33.704L5.26617 32.644L15.8661 43.244L14.8041 44.304Z" stroke="#D92D20" stroke-width="2" stroke-linecap="round" stroke-linejoin="round"/>
<path d="M20.1076 38.9992L9.50098 28.3926L5.25834 32.6352L15.8649 43.2418L20.1076 38.9992Z" stroke="#D92D20" stroke-width="2" stroke-linecap="round" stroke-linejoin="round"/>
<path d="M20.1001 38.9999L45.1001 29.246C45.6632 29.0259 46.1467 28.6408 46.4872 28.1411C46.8277 27.6415 47.0092 27.0506 47.0081 26.446V22.5C47.0081 21.7043 46.692 20.9413 46.1294 20.3787C45.5668 19.816 44.8037 19.5 44.0081 19.5H38.0081V13.5C38.0081 12.7043 37.692 11.9413 37.1294 11.3787C36.5668 10.8161 35.8037 10.5 35.0081 10.5H29.0081V4.5C29.0081 3.70435 28.692 2.94129 28.1294 2.37868C27.5668 1.81608 26.8037 1.50001 26.0081 1.50001H22.0501C21.4455 1.49884 20.8546 1.68039 20.355 2.02087C19.8553 2.36134 19.4702 2.84485 19.2501 3.408L9.50012 28.4L20.1001 38.9999Z" stroke="#D92D20" stroke-width="2" stroke-linecap="round" stroke-linejoin="round"/>
<path d="M29.0001 10.5L12.9741 31.868" stroke="#D92D20" stroke-width="2" stroke-linecap="round" stroke-linejoin="round"/>
<path d="M38.0001 19.5L16.6321 35.526" stroke="#D92D20" stroke-width="2" stroke-linecap="round" stroke-linejoin="round"/>
</g>
<defs>
<clipPath id="clip0_7540_1076">
<rect width="47.9999" height="47.9999" fill="white" transform="translate(0.500153)"/>
</clipPath>
</defs>
</svg>
