<svg width="49" height="48" viewBox="0 0 49 48" fill="none" xmlns="http://www.w3.org/2000/svg">
<g clip-path="url(#clip0_7540_1063)">
<path d="M26.0001 11.9999C28.8996 11.9999 31.2501 9.64936 31.2501 6.74987C31.2501 3.85038 28.8996 1.49988 26.0001 1.49988C23.1006 1.49988 20.7501 3.85038 20.7501 6.74987C20.7501 9.64936 23.1006 11.9999 26.0001 11.9999Z" stroke="#D92D20" stroke-width="2" stroke-linecap="round" stroke-linejoin="round"/>
<path d="M41.5881 10.5578C41.2016 10.4789 40.8033 10.4773 40.4162 10.5531C40.0291 10.6289 39.6609 10.7806 39.3327 10.9995C39.0045 11.2183 38.723 11.5 38.5042 11.8282C38.2854 12.1564 38.1338 12.5247 38.0581 12.9118C37.8088 14.1788 37.0744 15.2983 36.0114 16.0313C34.9483 16.7644 33.6409 17.0531 32.3681 16.8358L16.0741 14.4998C13.6666 14.1157 11.2027 14.6497 9.17032 15.9962C7.13793 17.3426 5.6853 19.4031 5.10012 21.7698C5.00424 22.1519 4.98456 22.5492 5.04223 22.939C5.09989 23.3287 5.23376 23.7033 5.43619 24.0413C5.63863 24.3793 5.90566 24.6741 6.22204 24.9089C6.53843 25.1438 6.89796 25.3139 7.28012 25.4098C7.51963 25.469 7.76539 25.4992 8.01212 25.4998C8.67699 25.4949 9.32142 25.2694 9.84416 24.8585C10.3669 24.4476 10.7383 23.8747 10.9001 23.2298C11.1198 22.3049 11.6854 21.4993 12.4807 20.9785C13.276 20.4577 14.2405 20.2614 15.1761 20.4298L19.0361 20.9838L16.5001 29.8158C16.366 30.4072 16.055 30.9437 15.6084 31.3539C15.1617 31.764 14.6007 32.0284 14.0001 32.1118L7.57212 33.0298C6.78443 33.1425 6.07377 33.5635 5.59649 34.2002C5.11922 34.8369 4.91441 35.6371 5.02712 36.4248C5.13984 37.2124 5.56085 37.9231 6.19753 38.4004C6.83422 38.8777 7.63443 39.0825 8.42212 38.9698L14.8501 38.0538C16.3994 37.8402 17.8657 37.2243 19.1027 36.2673C20.3397 35.3103 21.3043 34.0458 21.9001 32.5998L23.2261 32.9798C23.9161 33.1725 24.5135 33.6077 24.9084 34.2055C25.3034 34.8032 25.4694 35.5234 25.3761 36.2338L24.5161 43.1337C24.4571 43.5293 24.4778 43.9327 24.577 44.3201C24.6762 44.7076 24.8518 45.0713 25.0936 45.3899C25.3354 45.7084 25.6384 45.9755 25.9849 46.1752C26.3314 46.375 26.7143 46.5034 27.1112 46.553C27.508 46.6026 27.9108 46.5724 28.2958 46.4641C28.6808 46.3557 29.0402 46.1715 29.353 45.9223C29.6658 45.673 29.9255 45.3637 30.117 45.0126C30.3085 44.6615 30.4279 44.2757 30.4681 43.8777L31.3301 36.9818C31.6097 34.8483 31.1117 32.6856 29.9272 30.8893C28.7428 29.093 26.9511 27.7832 24.8801 27.1998L23.6021 26.8358L25.0421 21.8478L31.4781 22.7698C34.2753 23.2145 37.136 22.5584 39.4599 20.9393C41.7838 19.3202 43.3902 16.8639 43.9421 14.0858C44.0975 13.3058 43.9368 12.4961 43.4954 11.8345C43.054 11.1729 42.3679 10.7137 41.5881 10.5578Z" stroke="#D92D20" stroke-width="2" stroke-linecap="round" stroke-linejoin="round"/>
<path d="M36.5001 5.99988L38.9221 11.3279" stroke="#D92D20" stroke-width="2" stroke-linecap="round" stroke-linejoin="round"/>
<path d="M42.106 18.3339L44 22.4999" stroke="#D92D20" stroke-width="2" stroke-linecap="round" stroke-linejoin="round"/>
</g>
<defs>
<clipPath id="clip0_7540_1063">
<rect width="47.9999" height="47.9999" fill="white" transform="translate(0.500137 -0.00012207)"/>
</clipPath>
</defs>
</svg>
