<svg width="49" height="48" viewBox="0 0 49 48" fill="none" xmlns="http://www.w3.org/2000/svg">
<path d="M30.5001 12C32.9854 12 35.0001 9.98527 35.0001 7.49999C35.0001 5.01472 32.9854 3 30.5001 3C28.0148 3 26.0001 5.01472 26.0001 7.49999C26.0001 9.98527 28.0148 12 30.5001 12Z" stroke="#D92D20" stroke-width="2" stroke-linecap="round" stroke-linejoin="round"/>
<path d="M9.50015 45C13.6423 45 17.0001 41.6421 17.0001 37.5C17.0001 33.3579 13.6423 30 9.50015 30C5.35803 30 2.00017 33.3579 2.00017 37.5C2.00017 41.6421 5.35803 45 9.50015 45Z" stroke="#D92D20" stroke-width="2" stroke-linecap="round" stroke-linejoin="round"/>
<path d="M39.5001 45C43.6422 45 47.0001 41.6421 47.0001 37.5C47.0001 33.3579 43.6422 30 39.5001 30C35.358 30 32.0001 33.3579 32.0001 37.5C32.0001 41.6421 35.358 45 39.5001 45Z" stroke="#D92D20" stroke-width="2" stroke-linecap="round" stroke-linejoin="round"/>
<path d="M24.5001 40.5002C23.7045 40.5002 22.9414 40.1841 22.3788 39.6215C21.8162 39.0589 21.5001 38.2958 21.5001 37.5002C21.5044 35.3009 20.9027 33.1429 19.761 31.2631C18.6193 29.3833 16.9818 27.8544 15.0282 26.8442C14.6049 26.6234 14.2404 26.3048 13.965 25.9149C13.6896 25.5249 13.5112 25.0749 13.4447 24.6021C13.3782 24.1294 13.4255 23.6476 13.5826 23.1968C13.7397 22.746 14.0022 22.3392 14.3482 22.0102L22.4341 14.3262C22.774 14.0032 23.1848 13.7642 23.6337 13.6287C24.0825 13.4931 24.5569 13.4646 25.0188 13.5455C25.4806 13.6264 25.9171 13.8144 26.2931 14.0945C26.6692 14.3746 26.9743 14.7389 27.1841 15.1582C27.1981 15.1842 29.4741 19.5002 33.5001 19.5002C34.2958 19.5002 35.0588 19.8163 35.6214 20.3789C36.1841 20.9415 36.5001 21.7046 36.5001 22.5002C36.5001 23.2959 36.1841 24.0589 35.6214 24.6215C35.0588 25.1841 34.2958 25.5002 33.5001 25.5002C31.7033 25.4687 29.9339 25.0544 28.3099 24.285C26.6859 23.5156 25.2446 22.4087 24.0821 21.0382L21.1781 23.8002C23.1636 25.4877 24.7577 27.5873 25.8494 29.9533C26.9412 32.3192 27.5045 34.8945 27.5001 37.5002C27.5001 38.2958 27.1841 39.0589 26.6215 39.6215C26.0589 40.1841 25.2958 40.5002 24.5001 40.5002Z" stroke="#D92D20" stroke-width="2" stroke-linecap="round" stroke-linejoin="round"/>
</svg>
