<svg width="49" height="48" viewBox="0 0 49 48" fill="none" xmlns="http://www.w3.org/2000/svg">
<g clip-path="url(#clip0_7540_31)">
<path d="M17.0001 16.5V5.99999C17.0001 4.80652 16.526 3.66193 15.6821 2.81802C14.8382 1.9741 13.6936 1.5 12.5001 1.5C11.3067 1.5 10.1621 1.9741 9.31817 2.81802C8.47426 3.66193 8.00015 4.80652 8.00015 5.99999V16.5C4.24839 20.6076 2.11621 25.938 2.00016 31.4999C2.09344 36.5497 3.85816 41.426 7.01815 45.3659C7.29918 45.7197 7.65649 46.0054 8.06341 46.2018C8.47032 46.3982 8.91633 46.5001 9.36815 46.4999H15.6321C16.084 46.5001 16.53 46.3982 16.9369 46.2018C17.3438 46.0054 17.7011 45.7197 17.9821 45.3659C21.1421 41.426 22.9068 36.5497 23.0001 31.4999C22.8841 25.938 20.7519 20.6076 17.0001 16.5Z" stroke="#D92D20" stroke-width="2" stroke-linecap="round" stroke-linejoin="round"/>
<path d="M25.4221 44.984C27.7089 46.0976 30.2413 46.6114 32.7813 46.4771C35.3213 46.3428 37.7854 45.5648 39.942 44.2162C42.0986 42.8677 43.8769 40.9929 45.1097 38.7681C46.3425 36.5433 46.9893 34.0415 46.9893 31.498C46.9893 28.9545 46.3425 26.4527 45.1097 24.2279C43.8769 22.0031 42.0986 20.1283 39.942 18.7798C37.7854 17.4313 35.3213 16.6533 32.7813 16.519C30.2413 16.3847 27.7089 16.8985 25.4221 18.012" stroke="#D92D20" stroke-width="2" stroke-linecap="round" stroke-linejoin="round"/>
<path d="M8.00015 16.5H17.0001" stroke="#D92D20" stroke-width="2" stroke-linecap="round" stroke-linejoin="round"/>
<path d="M17.0001 10.5H8.00015" stroke="#D92D20" stroke-width="2" stroke-linecap="round" stroke-linejoin="round"/>
<path d="M32.7501 30C32.949 30 33.1398 30.079 33.2804 30.2197C33.4211 30.3603 33.5001 30.5511 33.5001 30.75" stroke="#D92D20" stroke-width="2" stroke-linecap="round" stroke-linejoin="round"/>
<path d="M32.0001 30.75C32.0001 30.5511 32.0791 30.3603 32.2198 30.2197C32.3604 30.079 32.5512 30 32.7501 30" stroke="#D92D20" stroke-width="2" stroke-linecap="round" stroke-linejoin="round"/>
<path d="M32.7501 31.5C32.5512 31.5 32.3604 31.421 32.2198 31.2803C32.0791 31.1397 32.0001 30.9489 32.0001 30.75" stroke="#D92D20" stroke-width="2" stroke-linecap="round" stroke-linejoin="round"/>
<path d="M33.5001 30.75C33.5001 30.9489 33.4211 31.1397 33.2804 31.2803C33.1398 31.421 32.949 31.5 32.7501 31.5" stroke="#D92D20" stroke-width="2" stroke-linecap="round" stroke-linejoin="round"/>
<path d="M40.2501 28.5C40.449 28.5 40.6398 28.579 40.7804 28.7197C40.9211 28.8603 41.0001 29.0511 41.0001 29.25" stroke="#D92D20" stroke-width="2" stroke-linecap="round" stroke-linejoin="round"/>
<path d="M39.5001 29.25C39.5001 29.0511 39.5791 28.8603 39.7198 28.7197C39.8604 28.579 40.0512 28.5 40.2501 28.5" stroke="#D92D20" stroke-width="2" stroke-linecap="round" stroke-linejoin="round"/>
<path d="M40.2501 30C40.0512 30 39.8604 29.921 39.7198 29.7803C39.5791 29.6397 39.5001 29.4489 39.5001 29.25" stroke="#D92D20" stroke-width="2" stroke-linecap="round" stroke-linejoin="round"/>
<path d="M41.0001 29.25C41.0001 29.4489 40.9211 29.6397 40.7804 29.7803C40.6398 29.921 40.449 30 40.2501 30" stroke="#D92D20" stroke-width="2" stroke-linecap="round" stroke-linejoin="round"/>
<path d="M34.2501 22.5C34.449 22.5 34.6398 22.579 34.7804 22.7197C34.9211 22.8603 35.0001 23.0511 35.0001 23.25" stroke="#D92D20" stroke-width="2" stroke-linecap="round" stroke-linejoin="round"/>
<path d="M33.5001 23.25C33.5001 23.0511 33.5791 22.8603 33.7198 22.7197C33.8604 22.579 34.0512 22.5 34.2501 22.5" stroke="#D92D20" stroke-width="2" stroke-linecap="round" stroke-linejoin="round"/>
<path d="M34.2501 24C34.0512 24 33.8604 23.921 33.7198 23.7803C33.5791 23.6397 33.5001 23.4489 33.5001 23.25" stroke="#D92D20" stroke-width="2" stroke-linecap="round" stroke-linejoin="round"/>
<path d="M35.0001 23.25C35.0001 23.4489 34.9211 23.6397 34.7804 23.7803C34.6398 23.921 34.449 24 34.2501 24" stroke="#D92D20" stroke-width="2" stroke-linecap="round" stroke-linejoin="round"/>
</g>
<defs>
<clipPath id="clip0_7540_31">
<rect width="47.9999" height="47.9999" fill="white" transform="translate(0.500164)"/>
</clipPath>
</defs>
</svg>
