<svg width="48" height="48" viewBox="0 0 48 48" fill="none" xmlns="http://www.w3.org/2000/svg">
<g clip-path="url(#clip0_7540_284)">
<path d="M44.9999 31.5C44.9999 33.156 43.6559 36 41.9999 36C40.3439 36 38.9999 33.156 38.9999 31.5C38.9999 30.7043 39.3159 29.9413 39.8786 29.3787C40.4412 28.8161 41.2042 28.5 41.9999 28.5C42.7955 28.5 43.5586 28.8161 44.1212 29.3787C44.6838 29.9413 44.9999 30.7043 44.9999 31.5Z" stroke="#D92D20" stroke-width="2" stroke-linecap="round" stroke-linejoin="round"/>
<path d="M43.4639 35.2559C44.9068 37.2839 45.9382 39.5751 46.4999 41.9998C46.4999 43.1933 46.0258 44.3379 45.1818 45.1818C44.3379 46.0257 43.1933 46.4998 41.9999 46.4998C40.8064 46.4998 39.6618 46.0257 38.8179 45.1818C37.974 44.3379 37.4999 43.1933 37.4999 41.9998C38.0615 39.5751 39.093 37.2839 40.5359 35.2559" stroke="#D92D20" stroke-width="2" stroke-linecap="round" stroke-linejoin="round"/>
<path d="M26.9999 12C29.8994 12 32.2499 9.64948 32.2499 6.74999C32.2499 3.8505 29.8994 1.5 26.9999 1.5C24.1004 1.5 21.7499 3.8505 21.7499 6.74999C21.7499 9.64948 24.1004 12 26.9999 12Z" stroke="#D92D20" stroke-width="2" stroke-linecap="round" stroke-linejoin="round"/>
<path d="M37.4499 21.2502L17.4759 12.5362C15.9466 11.858 14.2573 11.6236 12.6011 11.8599C10.9449 12.0961 9.3886 12.7935 8.10991 13.8722L5.79991 15.8002C5.48423 16.0485 5.22161 16.3576 5.02761 16.7092C4.83361 17.0608 4.71219 17.4479 4.67054 17.8473C4.62889 18.2467 4.66786 18.6504 4.78514 19.0345C4.90242 19.4186 5.09563 19.7753 5.35331 20.0833C5.61098 20.3913 5.92788 20.6445 6.28522 20.8278C6.64255 21.0111 7.03305 21.1207 7.43356 21.1503C7.83407 21.1798 8.23644 21.1287 8.6168 20.9998C8.99717 20.871 9.3478 20.6671 9.64791 20.4002L11.9559 18.4722C12.3814 18.1126 12.8997 17.8804 13.4512 17.8022C14.0028 17.724 14.5653 17.803 15.0739 18.0302L18.5999 19.5742L13.8459 28.6002C13.6184 29.0318 13.4997 29.5124 13.4999 30.0002V37.5002L8.69991 41.1002C8.38474 41.3366 8.11921 41.6327 7.91849 41.9717C7.71776 42.3107 7.58578 42.6859 7.53006 43.0759C7.47435 43.4659 7.496 43.8631 7.59377 44.2447C7.69154 44.6264 7.86353 44.985 8.09991 45.3002C8.33629 45.6154 8.63243 45.8809 8.97143 46.0816C9.31042 46.2823 9.68564 46.4143 10.0756 46.47C10.4656 46.5257 10.8628 46.5041 11.2444 46.4063C11.6261 46.3085 11.9847 46.1366 12.2999 45.9002L18.2999 41.4002C18.6725 41.1208 18.9749 40.7584 19.1832 40.3418C19.3915 39.9253 19.4999 39.4659 19.4999 39.0002V33.8342L24.5479 36.4462L25.5259 43.8902C25.6227 44.6099 25.9773 45.27 26.5238 45.7481C27.0703 46.2262 27.7717 46.4899 28.4979 46.4902C28.6316 46.4907 28.7653 46.482 28.8979 46.4642C29.6866 46.3606 30.4018 45.9481 30.8864 45.3172C31.371 44.6864 31.5852 43.8889 31.4819 43.1002L30.5059 35.6622C30.3806 34.7004 30.0241 33.7833 29.4667 32.9894C28.9094 32.1956 28.168 31.5487 27.3059 31.1042L21.0199 27.8522L24.1179 21.9702L35.0519 26.7402C35.413 26.8978 35.8016 26.9827 36.1956 26.9901C36.5895 26.9975 36.9811 26.9272 37.3479 26.7833C37.7147 26.6394 38.0495 26.4246 38.3333 26.1513C38.6171 25.8779 38.8443 25.5514 39.0019 25.1902C39.1594 24.8291 39.2444 24.4404 39.2517 24.0465C39.2591 23.6525 39.1889 23.261 39.0449 22.8942C38.901 22.5274 38.6862 22.1926 38.4129 21.9088C38.1396 21.625 37.813 21.3978 37.4519 21.2402L37.4499 21.2502Z" stroke="#D92D20" stroke-width="2" stroke-linecap="round" stroke-linejoin="round"/>
<path d="M10.27 26.9239C9.87476 28.0366 9.05871 28.9498 7.99727 29.4673C6.93582 29.9847 5.71373 30.065 4.59372 29.6908C3.47371 29.3167 2.54521 28.5181 2.00783 27.4666C1.47045 26.4151 1.3671 25.1947 1.72 24.0679" stroke="#D92D20" stroke-width="2" stroke-linecap="round" stroke-linejoin="round"/>
</g>
<defs>
<clipPath id="clip0_7540_284">
<rect width="47.9999" height="47.9999" fill="white"/>
</clipPath>
</defs>
</svg>
