<svg width="49" height="48" viewBox="0 0 49 48" fill="none" xmlns="http://www.w3.org/2000/svg">
<path d="M28.2501 13.5C31.1496 13.5 33.5001 11.1495 33.5001 8.24999C33.5001 5.3505 31.1496 3 28.2501 3C25.3506 3 23.0001 5.3505 23.0001 8.24999C23.0001 11.1495 25.3506 13.5 28.2501 13.5Z" stroke="#D92D20" stroke-width="2" stroke-linecap="round" stroke-linejoin="round"/>
<path d="M47.0001 41.9999C47.0001 42.7955 46.684 43.5586 46.1214 44.1212C45.5588 44.6838 44.7957 44.9999 44.0001 44.9999H38.0001C37.2045 44.9999 36.4414 44.6838 35.8788 44.1212C35.3162 43.5586 35.0001 42.7955 35.0001 41.9999C35.0001 41.2042 35.3162 40.4412 35.8788 39.8786C36.4414 39.3159 37.2045 38.9999 38.0001 38.9999H44.0001C44.7957 38.9999 45.5588 39.3159 46.1214 39.8786C46.684 40.4412 47.0001 41.2042 47.0001 41.9999Z" stroke="#D92D20" stroke-width="2" stroke-linecap="round" stroke-linejoin="round"/>
<path d="M44.0001 39V36C44.0001 35.2043 43.684 34.4413 43.1214 33.8787C42.5588 33.3161 41.7957 33 41.0001 33H38.0001" stroke="#D92D20" stroke-width="2" stroke-linecap="round" stroke-linejoin="round"/>
<path d="M35.3541 20.7782C33.4828 20.5689 31.6867 19.9236 30.1101 18.8942C26.4617 16.5667 22.2604 15.2505 17.9361 15.0804C13.6119 14.9103 9.32009 15.8924 5.50016 17.9262C4.80079 18.3078 4.28167 18.9516 4.057 19.716C3.83233 20.4804 3.92052 21.3028 4.30216 22.0022C4.68381 22.7015 5.32765 23.2207 6.09205 23.4453C6.85644 23.67 7.67878 23.5818 8.37816 23.2002C10.8307 21.8932 13.554 21.1755 16.3321 21.1042L11.4302 31.3041C11.184 31.8124 10.7999 32.2412 10.3219 32.5418C9.84377 32.8423 9.29087 33.0025 8.72616 33.0041H5.00016C4.20451 33.0041 3.44145 33.3202 2.87885 33.8828C2.31624 34.4454 2.00017 35.2085 2.00017 36.0041C2.00017 36.7998 2.31624 37.5628 2.87885 38.1254C3.44145 38.6881 4.20451 39.0041 5.00016 39.0041H8.72616C10.4207 38.9988 12.0796 38.5174 13.5138 37.615C14.9481 36.7126 16.0999 35.4254 16.8381 33.9001L17.3301 32.8761L20.3001 35.1001C20.6718 35.3804 20.9736 35.743 21.1817 36.1593C21.3899 36.5757 21.4989 37.0346 21.5001 37.5001V42.0001C21.5001 42.7958 21.8162 43.5588 22.3788 44.1214C22.9414 44.684 23.7045 45.0001 24.5001 45.0001C25.2958 45.0001 26.0588 44.684 26.6214 44.1214C27.1841 43.5588 27.5001 42.7958 27.5001 42.0001V37.5001C27.4978 36.1033 27.1715 34.7261 26.5468 33.4768C25.9222 32.2275 25.0162 31.1401 23.9001 30.3001L19.9781 27.3601L22.5901 21.9202C24.0858 22.393 25.5107 23.0657 26.8261 23.9202C29.1939 25.4638 31.8908 26.4303 34.7001 26.7421C34.8104 26.7541 34.9212 26.7601 35.0321 26.7601C35.799 26.7591 36.5363 26.4644 37.0926 25.9367C37.649 25.4089 37.9821 24.6881 38.0236 23.9224C38.0651 23.1567 37.8117 22.4041 37.3156 21.8194C36.8196 21.2346 36.1164 20.862 35.3541 20.7782Z" stroke="#D92D20" stroke-width="2" stroke-linecap="round" stroke-linejoin="round"/>
</svg>
