<svg width="48" height="48" viewBox="0 0 48 48" fill="none" xmlns="http://www.w3.org/2000/svg">
<g clip-path="url(#clip0_7540_328)">
<path d="M26.624 12C29.5235 12 31.874 9.64948 31.874 6.74999C31.874 3.8505 29.5235 1.5 26.624 1.5C23.7246 1.5 21.3741 3.8505 21.3741 6.74999C21.3741 9.64948 23.7246 12 26.624 12Z" stroke="#D92D20" stroke-width="2" stroke-linecap="round" stroke-linejoin="round"/>
<path d="M8.62407 46.5C11.5236 46.5 13.8741 44.1495 13.8741 41.25C13.8741 38.3505 11.5236 36 8.62407 36C5.72459 36 3.37408 38.3505 3.37408 41.25C3.37408 44.1495 5.72459 46.5 8.62407 46.5Z" stroke="#D92D20" stroke-width="2" stroke-linecap="round" stroke-linejoin="round"/>
<path d="M17.762 35.9018L20.114 20.9998H19.834C19.2764 20.9976 18.7292 21.1517 18.2548 21.4448C17.7804 21.7379 17.3976 22.1581 17.15 22.6578L14.308 28.3418C14.1318 28.6943 13.8879 29.0086 13.5902 29.2668C13.2925 29.525 12.9468 29.722 12.573 29.8466C12.1991 29.9712 11.8044 30.021 11.4113 29.993C11.0182 29.9651 10.6345 29.86 10.282 29.6838C9.92956 29.5076 9.61526 29.2636 9.35706 28.9659C9.09887 28.6682 8.90184 28.3226 8.77722 27.9487C8.65261 27.5749 8.60284 27.1801 8.63078 26.7871C8.65871 26.394 8.7638 26.0103 8.94003 25.6578L11.782 19.9738C12.5259 18.4756 13.6744 17.2157 15.0975 16.3366C16.5206 15.4575 18.1613 14.9945 19.834 14.9998H33.416C33.9736 15.0018 34.5206 14.8476 34.995 14.5545C35.4694 14.2615 35.8522 13.8414 36.1 13.3418L38.94 7.65783C39.2959 6.94599 39.92 6.40469 40.675 6.15302C41.4301 5.90134 42.2541 5.95991 42.966 6.31583C43.6778 6.67175 44.2191 7.29587 44.4708 8.05089C44.7225 8.80591 44.6639 9.62998 44.308 10.3418L41.466 16.0258C40.7224 17.5238 39.5743 18.7837 38.1515 19.6628C36.7288 20.5419 35.0884 21.005 33.416 20.9998H32.186L28.586 43.8098C28.4747 44.5147 28.1157 45.1568 27.5736 45.6208C27.0314 46.0849 26.3416 46.3405 25.628 46.3418C25.4699 46.342 25.312 46.3292 25.156 46.3038C24.3706 46.1793 23.6667 45.7481 23.1991 45.105C22.7314 44.4618 22.5382 43.6593 22.662 42.8738L24.706 29.9338" stroke="#D92D20" stroke-width="2" stroke-linecap="round" stroke-linejoin="round"/>
</g>
<defs>
<clipPath id="clip0_7540_328">
<rect width="47.9999" height="47.9999" fill="white"/>
</clipPath>
</defs>
</svg>
