<svg width="48" height="48" viewBox="0 0 48 48" fill="none" xmlns="http://www.w3.org/2000/svg">
<g clip-path="url(#clip0_7540_181)">
<path d="M5.99999 31.5C8.48527 31.5 10.5 29.4853 10.5 27C10.5 24.5147 8.48527 22.5 5.99999 22.5C3.51472 22.5 1.5 24.5147 1.5 27C1.5 29.4853 3.51472 31.5 5.99999 31.5Z" stroke="#D92D20" stroke-width="2" stroke-linecap="round" stroke-linejoin="round"/>
<path d="M44.4219 1.64387C43.6648 1.39964 42.8416 1.46619 42.1334 1.82888C41.4253 2.19157 40.8902 2.8207 40.6459 3.57787C40.6459 3.57787 32.752 28.0438 30.374 35.4198C30.1793 36.0241 29.7979 36.5511 29.2846 36.9248C28.7714 37.2986 28.1529 37.4999 27.518 37.4998H15C13.8065 37.4998 12.6619 37.9739 11.818 38.8178C10.9741 39.6617 10.5 40.8063 10.5 41.9998C10.5 43.1933 10.9741 44.3379 11.818 45.1818C12.6619 46.0257 13.8065 46.4998 15 46.4998H28.734C30.0032 46.4997 31.2397 46.0972 32.2657 45.3501C33.2917 44.603 34.0543 43.5497 34.444 42.3418L46.3539 5.42187C46.4752 5.04695 46.5214 4.6518 46.49 4.25902C46.4585 3.86623 46.35 3.48348 46.1706 3.13265C45.9912 2.78181 45.7444 2.46976 45.4444 2.21431C45.1443 1.95886 44.7969 1.76503 44.4219 1.64387Z" stroke="#D92D20" stroke-width="2" stroke-linecap="round" stroke-linejoin="round"/>
<path d="M18 37.4999L27 46.4999" stroke="#D92D20" stroke-width="2" stroke-linecap="round" stroke-linejoin="round"/>
<path d="M32.3359 29.3359L37.1019 34.1019" stroke="#D92D20" stroke-width="2" stroke-linecap="round" stroke-linejoin="round"/>
<path d="M37.092 14.5918L41.858 19.3578" stroke="#D92D20" stroke-width="2" stroke-linecap="round" stroke-linejoin="round"/>
</g>
<defs>
<clipPath id="clip0_7540_181">
<rect width="47.9999" height="47.9999" fill="white"/>
</clipPath>
</defs>
</svg>
