<svg width="186" height="53" viewBox="0 0 186 53" fill="none" xmlns="http://www.w3.org/2000/svg">
<path fill-rule="evenodd" clip-rule="evenodd" d="M77.7893 13.9809C77.0189 14.352 76.017 14.5357 74.7764 14.5357C73.1596 14.5357 71.8864 14.0638 70.9605 13.1163C70.0345 12.1688 69.5716 10.9079 69.5716 9.32998C69.5716 7.65477 70.0924 6.28939 71.1341 5.24463C72.1758 4.19988 73.5249 3.6775 75.1887 3.6775C76.2159 3.6775 77.084 3.80719 77.7893 4.06658V6.34703C77.084 5.92552 76.2774 5.71657 75.3768 5.71657C74.3857 5.71657 73.5864 6.0264 72.9787 6.64604C72.3711 7.26569 72.0673 8.1051 72.0673 9.16426C72.0673 10.2234 72.353 10.9872 72.9281 11.5924C73.4996 12.1941 74.2736 12.4967 75.243 12.4967C76.2123 12.4967 77.0153 12.2733 77.7857 11.823V13.9809H77.7893ZM77.5795 0.5L75.8325 2.88492H74.0096L72.2807 0.5H73.7853L74.9283 1.8834L76.0749 0.5H77.5795ZM85.9492 14.3556H79.6267V3.85763H85.7105V5.77782H82.0067V8.11591H85.4537V10.0361H82.0067V12.4354H85.9492V14.3556ZM87.1572 13.9521V11.614C87.5841 11.9707 88.047 12.2337 88.5498 12.4102C89.0489 12.5867 89.5553 12.6768 90.0653 12.6768C90.3655 12.6768 90.6259 12.648 90.8502 12.5975C91.0744 12.5435 91.2589 12.4715 91.4072 12.3742C91.5591 12.2805 91.6712 12.1652 91.7436 12.0391C91.8159 11.9094 91.8521 11.7689 91.8521 11.6176C91.8521 11.4123 91.7942 11.2286 91.6748 11.07C91.5555 10.9079 91.3963 10.7602 91.1902 10.6233C90.9876 10.4864 90.7453 10.3531 90.4668 10.227C90.1883 10.1009 89.8844 9.97125 89.5625 9.83795C88.7379 9.49931 88.1266 9.0814 87.7179 8.58785C87.3128 8.09429 87.1102 7.49986 87.1102 6.80096C87.1102 6.25336 87.2224 5.78502 87.443 5.39234C87.6636 4.99965 87.9638 4.67542 88.3436 4.42324C88.7234 4.16745 89.1647 3.98372 89.6638 3.86483C90.1666 3.74595 90.6946 3.6847 91.2516 3.6847C91.8087 3.6847 92.2897 3.71713 92.7129 3.78558C93.1361 3.85042 93.5267 3.9513 93.8884 4.0918V6.28218C93.7112 6.15969 93.5195 6.05161 93.3097 5.96155C93.0999 5.86788 92.8865 5.78862 92.6659 5.72738C92.4452 5.66614 92.2282 5.6193 92.0076 5.59408C91.7906 5.56526 91.5808 5.54725 91.3855 5.54725C91.1142 5.54725 90.8719 5.57247 90.6512 5.62651C90.4306 5.67694 90.2425 5.749 90.0906 5.84266C89.9387 5.93633 89.8193 6.04801 89.7361 6.1741C89.653 6.3038 89.6096 6.4479 89.6096 6.61002C89.6096 6.78655 89.6566 6.94146 89.7506 7.08196C89.8447 7.21886 89.9749 7.35215 90.1485 7.47825C90.3221 7.60434 90.5283 7.72322 90.7742 7.84211C91.0202 7.96099 91.2951 8.08348 91.6061 8.21318C92.0293 8.3897 92.4091 8.57704 92.7455 8.77158C93.0818 8.96972 93.3712 9.19309 93.6099 9.44166C93.8486 9.69024 94.0331 9.97485 94.1633 10.2955C94.2899 10.6161 94.355 10.9836 94.355 11.4087C94.355 11.9959 94.2429 12.4859 94.0222 12.8858C93.798 13.282 93.4942 13.6063 93.1108 13.8513C92.731 14.0998 92.2861 14.2764 91.7761 14.3844C91.2697 14.4925 90.7308 14.543 90.1666 14.543C89.6023 14.543 89.0381 14.4925 88.5172 14.3952C87.9964 14.298 87.5443 14.1539 87.1609 13.9593L87.1572 13.9521ZM104.837 14.3556H101.838L98.7713 9.79472C98.7098 9.70826 98.6194 9.51372 98.4928 9.2183H98.4566V14.3556H96.0767V3.85763H98.4566V8.82202H98.4928C98.5507 8.68512 98.6483 8.49058 98.7858 8.2384L101.69 3.86123H104.522L100.847 8.86525L104.837 14.3556ZM113.793 3.85763H111.279L109.55 7.80248C109.463 8.00062 109.387 8.27802 109.322 8.63108H109.293C109.163 8.13032 109.08 7.84571 109.051 7.77366L107.351 3.85763H104.638L107.984 10.6666V14.3556H110.364V10.6233L113.796 3.86123L113.793 3.85763ZM111.279 0.51441L108.982 2.88492H107.307L109.213 0.51441H111.279ZM70.2299 33.0531V22.5551H73.9626C77.7061 22.5551 79.5761 24.2592 79.5761 27.6708C79.5761 29.3064 79.0661 30.6106 78.0425 31.5869C77.0225 32.5632 75.6625 33.0495 73.9589 33.0495H70.2262L70.2299 33.0531ZM72.6098 24.4753V31.1329H73.7853C74.8126 31.1329 75.6191 30.8267 76.2051 30.2107C76.791 29.5946 77.084 28.7552 77.084 27.6997C77.084 26.6981 76.7946 25.9092 76.2123 25.3364C75.6336 24.7635 74.8198 24.4753 73.7709 24.4753H72.6134H72.6098ZM87.6528 33.0531H81.3303V22.5551H87.4141V24.4753H83.7103V26.8134H87.1572V28.7336H83.7103V31.1329H87.6528V33.0531ZM98.6158 33.0531H96.026L95.2882 30.715H91.5157L90.7851 33.0531H88.2098L92.0474 22.5551H94.865L98.6122 33.0531H98.6158ZM94.742 28.8993L93.6027 25.376C93.5195 25.1094 93.458 24.796 93.4254 24.4321H93.3676C93.3423 24.7383 93.2808 25.0445 93.1831 25.3472L92.0329 28.8993H94.7456H94.742ZM106.027 24.4753H102.309V27.0548H105.727V28.975H102.309V33.0531H99.9287V22.5551H106.027V24.4753ZM114.035 33.0531H107.756V22.5551H110.136V31.1329H114.035V33.0531ZM123.403 22.5551L119.97 29.3172V33.0495H117.59V29.3605L114.245 22.5515H116.957L118.657 26.4676C118.686 26.5396 118.77 26.8242 118.9 27.325H118.929C118.994 26.9719 119.07 26.6981 119.157 26.4964L120.885 22.5515H123.399L123.403 22.5551ZM136.605 33.0531H134.257V26.7702C134.257 26.0893 134.286 25.34 134.344 24.5222H134.286C134.163 25.167 134.055 25.6282 133.954 25.9128L131.483 33.0531H129.541L127.027 25.9848C126.958 25.7939 126.85 25.3075 126.694 24.5186H126.629C126.691 25.5525 126.723 26.464 126.723 27.2421V33.0495H124.586V22.5515H128.061L130.214 28.7732C130.384 29.2704 130.51 29.7712 130.586 30.2719H130.633C130.763 29.6919 130.904 29.1875 131.053 28.7588L133.208 22.5515H136.598V33.0495L136.605 33.0531ZM141.376 29.4397V33.0531H138.996V22.5551H142.717C145.376 22.5551 146.703 23.6684 146.703 25.902C146.703 26.9575 146.324 27.8077 145.56 28.4598C144.801 29.1119 143.781 29.4361 142.508 29.4361H141.376V29.4397ZM141.376 24.3709V27.6384H142.309C143.575 27.6384 144.204 27.0872 144.204 25.9848C144.204 24.8824 143.571 24.3673 142.309 24.3673H141.376V24.3709ZM151.514 22.5551V24.3853H150.624V31.223H151.514V33.0531H147.358V31.223H148.248V24.3853H147.358V22.5551H151.514ZM157.413 28.8849C157.413 30.2899 157.088 31.3635 156.433 32.1129C155.778 32.8586 154.831 33.2333 153.59 33.2333C153.037 33.2333 152.527 33.1396 152.053 32.9487V30.7295C152.458 31.0393 152.917 31.1942 153.424 31.1942C154.509 31.1942 155.051 30.3944 155.051 28.7913V22.5551H157.413V28.8849ZM159.24 32.646V30.308C159.667 30.661 160.129 30.9276 160.632 31.1041C161.131 31.2807 161.638 31.3707 162.148 31.3707C162.448 31.3707 162.708 31.3419 162.933 31.2915C163.157 31.2374 163.341 31.1654 163.49 31.0681C163.642 30.9744 163.754 30.8591 163.826 30.7331C163.898 30.6034 163.938 30.4629 163.938 30.3116C163.938 30.1062 163.88 29.9225 163.761 29.764C163.642 29.6018 163.482 29.4541 163.276 29.3172C163.074 29.1803 162.831 29.047 162.553 28.9209C162.274 28.7949 161.971 28.6652 161.649 28.5319C160.824 28.1932 160.213 27.7753 159.804 27.2818C159.399 26.7882 159.196 26.1938 159.196 25.4949C159.196 24.9473 159.308 24.4789 159.529 24.0863C159.75 23.6936 160.05 23.3693 160.43 23.1172C160.809 22.8614 161.251 22.6776 161.75 22.5588C162.253 22.4399 162.781 22.3786 163.338 22.3786C163.895 22.3786 164.376 22.411 164.799 22.4795C165.222 22.5443 165.613 22.6452 165.975 22.7857V24.9761C165.797 24.8536 165.606 24.7455 165.396 24.6555C165.186 24.5618 164.973 24.4825 164.752 24.4213C164.531 24.3601 164.314 24.3132 164.094 24.288C163.877 24.2592 163.667 24.2412 163.472 24.2412C163.2 24.2412 162.958 24.2664 162.737 24.3204C162.517 24.3709 162.329 24.4429 162.177 24.5366C162.025 24.6302 161.905 24.7419 161.822 24.868C161.739 24.9977 161.696 25.1418 161.696 25.3039C161.696 25.4805 161.743 25.6354 161.837 25.7759C161.931 25.9128 162.061 26.0461 162.235 26.1722C162.408 26.2983 162.614 26.4171 162.86 26.536C163.106 26.6549 163.381 26.7774 163.692 26.9071C164.115 27.0836 164.495 27.271 164.832 27.4655C165.168 27.6636 165.457 27.887 165.696 28.1356C165.935 28.3842 166.119 28.6688 166.249 28.9894C166.376 29.31 166.441 29.6775 166.441 30.1026C166.441 30.6898 166.329 31.1798 166.108 31.5797C165.884 31.976 165.58 32.3002 165.197 32.5452C164.817 32.7938 164.372 32.9703 163.862 33.0784C163.356 33.1864 162.817 33.2369 162.253 33.2369C161.688 33.2369 161.124 33.1864 160.603 33.0892C160.082 32.9919 159.63 32.8478 159.247 32.6532L159.24 32.646ZM176.919 33.0495H173.921L170.854 28.4886C170.792 28.4022 170.702 28.2076 170.575 27.9122H170.539V33.0495H168.159V22.5515H170.539V27.5159H170.575C170.633 27.379 170.731 27.1845 170.868 26.9323L173.773 22.5551H176.601L172.926 27.5592L176.916 33.0495H176.919ZM185.875 22.5515H183.361L181.632 26.4964C181.546 26.6945 181.47 26.9719 181.404 27.325H181.376C181.245 26.8242 181.162 26.5396 181.133 26.4676L179.433 22.5515H176.72L180.066 29.3605V33.0495H182.446V29.3172L185.879 22.5551L185.875 22.5515ZM183.361 19.2083L181.064 21.5788H179.39L181.3 19.2083H183.365H183.361ZM79.0046 41.2491L75.3732 51.7471H72.6822L69.0977 41.2491H71.6549L73.8541 48.5551C73.9734 48.9514 74.0421 49.3009 74.0675 49.6035H74.1109C74.147 49.2757 74.223 48.9154 74.3387 48.5263L76.5198 41.2527H79.0046V41.2491ZM88.217 41.2491L84.7845 48.0112V51.7435H82.4046V48.0544L79.0589 41.2455H81.7716L83.4716 45.1615C83.5005 45.2335 83.5837 45.5182 83.7139 46.0189H83.7428C83.8079 45.6659 83.8839 45.3921 83.9707 45.1903L85.6996 41.2455H88.2134L88.217 41.2491ZM85.7032 37.9058L83.4065 40.2764H81.7318L83.6416 37.9058H85.7068H85.7032ZM89.407 51.7471V41.2491H93.2446C94.4201 41.2491 95.3244 41.4652 95.9573 41.8939C96.5903 42.3226 96.905 42.9243 96.905 43.706C96.905 44.2716 96.7133 44.7688 96.3263 45.1939C95.9429 45.6154 95.4546 45.9108 94.8541 46.0802V46.109C95.6029 46.2026 96.2033 46.4764 96.6518 46.9376C97.1003 47.3951 97.3245 47.9535 97.3245 48.6128C97.3245 49.5747 96.9773 50.3384 96.2865 50.9004C95.5956 51.4624 94.6516 51.7435 93.458 51.7435H89.407V51.7471ZM91.787 42.9891V45.4785H92.8286C93.3169 45.4785 93.704 45.3596 93.9861 45.1219C94.2682 44.8841 94.4056 44.5599 94.4056 44.1456C94.4056 43.3746 93.8269 42.9891 92.6731 42.9891H91.7833H91.787ZM91.787 47.233V50.007H93.071C93.6208 50.007 94.0512 49.8809 94.3622 49.6251C94.6733 49.3693 94.8288 49.0235 94.8288 48.584C94.8288 48.1445 94.6769 47.8346 94.3695 47.5933C94.062 47.3519 93.6352 47.233 93.0891 47.233H91.7906H91.787ZM103.513 51.9272C102.001 51.9272 100.775 51.4372 99.8239 50.4609C98.8726 49.481 98.3988 48.2057 98.3988 46.635C98.3988 44.9742 98.8798 43.634 99.8456 42.6072C100.811 41.5841 102.092 41.0689 103.683 41.0689C105.188 41.0689 106.407 41.5589 107.333 42.5424C108.262 43.5223 108.725 44.8156 108.725 46.4224C108.725 48.0292 108.244 49.4018 107.278 50.4141C106.316 51.4228 105.061 51.9272 103.513 51.9272ZM103.614 43.1116C102.783 43.1116 102.121 43.4214 101.629 44.0447C101.14 44.6679 100.894 45.4929 100.894 46.5161C100.894 47.5392 101.14 48.3786 101.629 48.9839C102.117 49.5891 102.761 49.8917 103.557 49.8917C104.352 49.8917 105.021 49.5963 105.502 49.0091C105.98 48.4218 106.222 47.6041 106.222 46.5593C106.222 45.5145 105.991 44.6247 105.524 44.0195C105.058 43.4142 104.421 43.1116 103.611 43.1116H103.614ZM119.319 51.7471H116.596L114.954 49.0451C114.834 48.8398 114.715 48.656 114.603 48.4939C114.491 48.3354 114.379 48.1949 114.263 48.0832C114.147 47.9679 114.028 47.8815 113.901 47.8202C113.778 47.759 113.641 47.7265 113.496 47.7265H112.856V51.7435H110.476V41.2455H114.241C116.802 41.2455 118.079 42.1965 118.079 44.0987C118.079 44.4662 118.024 44.8048 117.912 45.1147C117.8 45.4245 117.637 45.7055 117.435 45.9505C117.229 46.199 116.979 46.4152 116.69 46.5953C116.4 46.7755 116.075 46.9196 115.717 47.0204V47.0493C115.876 47.0961 116.024 47.1753 116.173 47.287C116.317 47.3987 116.462 47.5248 116.599 47.6725C116.733 47.8166 116.867 47.9751 116.99 48.1445C117.117 48.3102 117.232 48.4759 117.334 48.638L119.323 51.7435L119.319 51.7471ZM112.852 43.0215V45.9469H113.879C114.389 45.9469 114.798 45.7992 115.106 45.5073C115.42 45.2083 115.576 44.8409 115.576 44.4013C115.576 43.4827 115.022 43.0251 113.923 43.0251H112.852V43.0215Z" fill="#1A171B"/>
<path fill-rule="evenodd" clip-rule="evenodd" d="M27.2205 52.1073C12.6152 51.9164 0.726288 39.9629 0.726288 25.3724C0.726288 18.0627 3.7139 11.4123 8.5317 6.57397L8.6402 6.64242C10.937 8.09067 13.4327 10.807 15.7982 14.2403C18.2541 17.8033 20.5653 22.1228 22.3666 26.6045C24.2329 31.241 25.5965 36.0577 26.4321 40.3808C27.3435 45.0858 27.6293 49.1856 27.264 51.8083L27.2205 52.1073Z" fill="#E2001A" stroke="white" stroke-width="0.57" stroke-miterlimit="22.93"/>
<path fill-rule="evenodd" clip-rule="evenodd" d="M27.8137 16.9172C26.7431 14.6079 23.5348 11.9528 19.7949 9.9209C16.8398 8.31774 13.5701 7.12167 10.7742 6.80464C12.7454 8.42582 14.789 10.7855 16.7313 13.6064C19.2307 17.2306 21.5817 21.6294 23.4155 26.1867C25.3108 30.8989 26.6961 35.784 27.5424 40.1684C28.3382 44.2825 28.6637 47.968 28.5082 50.6628C30.1503 48.2238 33.0004 39.3542 35.4274 29.411C37.717 20.0298 39.5399 9.72636 39.5327 2.88501C37.9267 4.26481 36.1146 5.97965 34.364 8.04034C32.2843 10.4937 30.295 13.437 28.8518 16.8991L28.3563 18.0844L27.8137 16.9172Z" fill="#E2001A" stroke="white" stroke-width="0.57" stroke-miterlimit="22.93"/>
<path fill-rule="evenodd" clip-rule="evenodd" d="M40.6431 1.98779C49.0164 6.45142 54.7167 15.2454 54.7167 25.3651C54.7167 39.8007 43.1243 51.5416 28.7071 51.855C30.7399 49.4629 33.9662 40.1322 36.5198 29.6774C38.9287 19.8135 40.8239 8.9156 40.6431 1.98779Z" fill="#D9DADB"/>
<path fill-rule="evenodd" clip-rule="evenodd" d="M28.3273 16.683C26.1246 11.9348 15.516 5.90401 8.9404 6.17061C13.7293 9.19319 19.2994 17.4828 22.8874 26.3956C26.8299 36.1875 28.5335 46.7539 27.8173 51.8841C30.8194 51.6535 40.6069 16.683 40.068 1.68896C36.4149 4.70074 31.2607 9.64352 28.3237 16.6794L28.3273 16.683Z" fill="#12226C"/>
<path fill-rule="evenodd" clip-rule="evenodd" d="M27.8137 16.9171C26.7431 14.6078 23.5348 11.9527 19.7949 9.9208C16.8398 8.31764 13.5701 7.12158 10.7742 6.80455C12.7454 8.42572 14.789 10.7854 16.7313 13.6063C19.2307 17.2305 21.5817 21.6293 23.4155 26.1866C25.3108 30.8988 26.6961 35.7839 27.5424 40.1683C28.3382 44.2824 28.6637 47.9679 28.5082 50.6627C30.1503 48.2237 33.0004 39.3541 35.4274 29.4109C37.717 20.0297 39.5399 9.72626 39.5327 2.88491C37.9267 4.26471 36.1146 5.97955 34.364 8.04024C32.2843 10.4936 30.295 13.4369 28.8518 16.899L28.3563 18.0843L27.8137 16.9171ZM20.3338 8.93369C23.7482 10.7854 26.7576 13.174 28.2622 15.4256C29.7018 12.2949 31.5645 9.59657 33.4996 7.31251C35.6408 4.78709 37.8653 2.77683 39.7099 1.25653L40.5924 0.528809L40.6322 1.67083C40.8818 8.57703 38.9612 19.6622 36.5161 29.6775C33.5719 41.739 29.7307 52.3018 27.8571 52.446L27.159 52.5L27.2567 51.8083C27.622 49.1856 27.3363 45.0858 26.4248 40.3808C25.5893 36.0613 24.2257 31.2446 22.3593 26.6045C20.5545 22.1264 18.2468 17.8033 15.7909 14.2403C13.4218 10.807 10.9297 8.09068 8.63296 6.64243L7.1066 5.67693L8.91508 5.60488C12.2463 5.47158 16.5505 6.8838 20.3302 8.93369H20.3338Z" fill="white"/>
<path fill-rule="evenodd" clip-rule="evenodd" d="M27.5714 3.40015C29.9333 3.40015 31.8466 5.30592 31.8466 7.65843C31.8466 10.0109 29.9333 11.9167 27.5714 11.9167C25.2095 11.9167 23.2961 10.0109 23.2961 7.65843C23.2961 5.30592 25.2095 3.40015 27.5714 3.40015Z" fill="#BCAA00"/>
</svg>
