<svg width="49" height="48" viewBox="0 0 49 48" fill="none" xmlns="http://www.w3.org/2000/svg">
<path d="M33.8021 17.1C33.1656 16.6226 32.3655 16.4176 31.5778 16.5301C30.7902 16.6426 30.0795 17.0634 29.6021 17.7L26.8021 21.4319L20.1641 17C19.6709 16.6728 19.092 16.4988 18.5001 16.5H12.0641C10.2627 16.4924 8.50084 17.0284 7.00871 18.0378C5.51657 19.0472 4.36353 20.4831 3.70016 22.1579L2.21416 25.8839C2.06786 26.2499 1.99511 26.6411 2.00007 27.0352C2.00503 27.4294 2.0876 27.8186 2.24306 28.1808C2.39852 28.543 2.62382 28.871 2.90609 29.1461C3.18837 29.4211 3.52208 29.6379 3.88816 29.7839C4.62706 30.0788 5.45281 30.0681 6.18381 29.7541C6.9148 29.4402 7.49117 28.8488 7.78615 28.1099L9.27815 24.3859C9.49922 23.828 9.88329 23.3497 10.3803 23.0132C10.8772 22.6768 11.464 22.4979 12.0641 22.4999H15.2081L14.1381 28.9159L6.95815 40.3999C6.53381 41.0744 6.39476 41.8898 6.57161 42.6667C6.74846 43.4437 7.22671 44.1186 7.90115 44.5429C8.5756 44.9673 9.39099 45.1063 10.1679 44.9294C10.9449 44.7526 11.6198 44.2744 12.0441 43.5999L17.8141 34.3599L18.8021 35.0999C19.1738 35.3802 19.4755 35.7427 19.6837 36.1591C19.8919 36.5755 20.0009 37.0344 20.0021 37.4999V41.9999C20.0021 42.7956 20.3182 43.5586 20.8808 44.1212C21.4434 44.6838 22.2065 44.9999 23.0021 44.9999C23.7978 44.9999 24.5608 44.6838 25.1234 44.1212C25.686 43.5586 26.0021 42.7956 26.0021 41.9999V37.4999C25.9995 36.1032 25.673 34.7261 25.0484 33.4768C24.4238 32.2275 23.5179 31.1401 22.4021 30.2999L20.2601 28.6999L20.9221 24.7259L23.4761 26.4279C24.753 27.2772 26.3065 27.6053 27.8177 27.345C29.3289 27.0846 30.6831 26.2555 31.6021 25.0279L34.4021 21.3019C34.6388 20.9867 34.811 20.6279 34.909 20.2461C35.0069 19.8642 35.0287 19.4668 34.9729 19.0766C34.9172 18.6864 34.7851 18.3109 34.5842 17.9718C34.3833 17.6326 34.1176 17.3363 33.8021 17.1Z" stroke="#D92D20" stroke-width="2" stroke-linecap="round" stroke-linejoin="round"/>
<path d="M21.5001 13.4999C24.3996 13.4999 26.7501 11.1494 26.7501 8.24987C26.7501 5.35038 24.3996 2.99988 21.5001 2.99988C18.6006 2.99988 16.2501 5.35038 16.2501 8.24987C16.2501 11.1494 18.6006 13.4999 21.5001 13.4999Z" stroke="#D92D20" stroke-width="2" stroke-linecap="round" stroke-linejoin="round"/>
<path d="M41.0001 29.9999V44.9999" stroke="#D92D20" stroke-width="2" stroke-linecap="round" stroke-linejoin="round"/>
<path d="M35.0001 29.9999H47.0001" stroke="#D92D20" stroke-width="2" stroke-linecap="round" stroke-linejoin="round"/>
<path d="M44.0001 23.2499C44.199 23.2499 44.3898 23.3289 44.5304 23.4695C44.6711 23.6102 44.7501 23.801 44.7501 23.9999" stroke="#D92D20" stroke-width="2" stroke-linecap="round" stroke-linejoin="round"/>
<path d="M43.2501 23.9999C43.2501 23.801 43.3291 23.6102 43.4698 23.4695C43.6104 23.3289 43.8012 23.2499 44.0001 23.2499" stroke="#D92D20" stroke-width="2" stroke-linecap="round" stroke-linejoin="round"/>
<path d="M44.0001 24.7499C43.8012 24.7499 43.6104 24.6709 43.4698 24.5302C43.3291 24.3896 43.2501 24.1988 43.2501 23.9999" stroke="#D92D20" stroke-width="2" stroke-linecap="round" stroke-linejoin="round"/>
<path d="M44.7501 23.9999C44.7501 24.1988 44.6711 24.3896 44.5304 24.5302C44.3898 24.6709 44.199 24.7499 44.0001 24.7499" stroke="#D92D20" stroke-width="2" stroke-linecap="round" stroke-linejoin="round"/>
<path d="M34.1241 17.3779L38.0001 13.4999" stroke="#D92D20" stroke-width="2" stroke-linecap="round" stroke-linejoin="round"/>
<path d="M44.4971 12.5726C46.5474 10.5223 46.9627 7.61355 45.4248 6.07567C43.887 4.53779 40.9782 4.95315 38.928 7.00339C36.8777 9.05364 36.4624 11.9624 38.0002 13.5003C39.5381 15.0382 42.4469 14.6228 44.4971 12.5726Z" stroke="#D92D20" stroke-width="2" stroke-linecap="round" stroke-linejoin="round"/>
</svg>
