<svg width="48" height="48" viewBox="0 0 48 48" fill="none" xmlns="http://www.w3.org/2000/svg">
<g clip-path="url(#clip0_7540_295)">
<path d="M8.99999 27.4639H7.59999C7.24552 27.4589 6.89618 27.549 6.58839 27.7249C6.28059 27.9008 6.0256 28.156 5.84999 28.4639L1.5 40.4639H46.4999L42.1499 28.4639C41.9743 28.156 41.7193 27.9008 41.4115 27.7249C41.1037 27.549 40.7544 27.4589 40.3999 27.4639H38.9999" stroke="#D92D20" stroke-width="2" stroke-linecap="round" stroke-linejoin="round"/>
<path d="M1.5 40.4578L2.1 44.1858C2.318 45.5218 3.1 46.4578 3.998 46.4578H43.9999C44.8979 46.4578 45.6799 45.5218 45.8979 44.1858L46.4979 40.4578" stroke="#D92D20" stroke-width="2" stroke-linecap="round" stroke-linejoin="round"/>
<path d="M15.942 28.4578C15.7072 24.5866 16.7377 20.7441 18.878 17.5099C19.7927 16.4536 20.7726 15.4557 21.812 14.5219H13.986C12.672 14.5219 12.438 13.8059 12.03 12.5219C11.9792 12.1293 12.0448 11.7305 12.2187 11.375C12.3925 11.0194 12.667 10.7228 13.008 10.5219L19.856 5.56388V1.45789C19.856 1.45789 23.768 3.57388 25.726 4.56788C30.05 6.76788 29.726 8.65587 29.65 10.9399C29.6375 11.3353 29.5081 11.7181 29.278 12.0399L24.748 18.3799C26.1864 19.6551 27.3588 21.2018 28.198 22.9312C29.0371 24.6607 29.5265 26.5388 29.638 28.4578" stroke="#D92D20" stroke-width="2" stroke-linecap="round" stroke-linejoin="round"/>
<path d="M33.27 33.2618C33.3007 33.4079 33.2965 33.5591 33.258 33.7033C33.2194 33.8474 33.1475 33.9805 33.048 34.0918C32.9431 34.2081 32.8147 34.3009 32.6713 34.364C32.5279 34.4271 32.3727 34.4591 32.216 34.4578H13.364C13.2077 34.459 13.0528 34.4271 12.9097 34.364C12.7666 34.3009 12.6386 34.2081 12.534 34.0918C12.4342 33.9808 12.362 33.8477 12.3234 33.7034C12.2848 33.5592 12.2809 33.4078 12.312 33.2618L13.128 29.4618C13.42 28.6458 14.352 28.4618 15.276 28.4618H30.306C31.23 28.4618 32.16 28.6458 32.452 29.4618L33.27 33.2618Z" stroke="#D92D20" stroke-width="2" stroke-linecap="round" stroke-linejoin="round"/>
<path d="M38.2499 32.9579C38.4488 32.9579 38.6396 33.0369 38.7803 33.1776C38.9209 33.3182 38.9999 33.509 38.9999 33.7079C38.9999 33.9068 38.9209 34.0976 38.7803 34.2382C38.6396 34.3789 38.4488 34.4579 38.2499 34.4579C38.051 34.4579 37.8603 34.3789 37.7196 34.2382C37.579 34.0976 37.4999 33.9068 37.4999 33.7079C37.4999 33.509 37.579 33.3182 37.7196 33.1776C37.8603 33.0369 38.051 32.9579 38.2499 32.9579Z" stroke="#D92D20" stroke-width="2" stroke-linecap="round" stroke-linejoin="round"/>
</g>
<defs>
<clipPath id="clip0_7540_295">
<rect width="47.9999" height="47.9999" fill="white"/>
</clipPath>
</defs>
</svg>
