<svg width="49" height="48" viewBox="0 0 49 48" fill="none" xmlns="http://www.w3.org/2000/svg">
<g clip-path="url(#clip0_7540_196)">
<path d="M29.0001 22.4999V25.4999C29.0001 26.2955 28.684 27.0586 28.1214 27.6212C27.5588 28.1838 26.7958 28.4999 26.0001 28.4999H17.0001L6.54415 34.7739C6.08879 35.0472 5.56904 35.1947 5.03798 35.2014C4.50693 35.2081 3.98362 35.0737 3.52152 34.812C3.05941 34.5502 2.67508 34.1705 2.40779 33.7115C2.1405 33.2526 1.99983 32.731 2.00015 32.1999V28.4999C2.00015 27.7042 2.31622 26.9412 2.87883 26.3786C3.44144 25.8159 4.2045 25.4999 5.00015 25.4999H11.0001L15.5001 22.4999H47.0001" stroke="#D92D20" stroke-width="2" stroke-linecap="round" stroke-linejoin="round"/>
<path d="M44.0001 22.4999V17.9999" stroke="#D92D20" stroke-width="2" stroke-linecap="round" stroke-linejoin="round"/>
<path d="M7.02213 19.4999C7.87066 15.9239 9.71229 12.6605 12.3348 10.0856C14.9573 7.51076 18.254 5.72928 21.8449 4.94646C25.4358 4.16365 29.1748 4.41136 32.6311 5.66105C36.0873 6.91074 39.1202 9.11155 41.3801 12.0099" stroke="#D92D20" stroke-width="2" stroke-linecap="round" stroke-linejoin="round"/>
<path d="M44.9781 28.5018C44.2117 31.7293 42.6349 34.708 40.3966 37.1562C38.1584 39.6045 35.3327 41.4414 32.1867 42.4934C29.0407 43.5453 25.6784 43.7775 22.4177 43.1679C19.157 42.5583 16.1056 41.1272 13.5521 39.0098" stroke="#D92D20" stroke-width="2" stroke-linecap="round" stroke-linejoin="round"/>
<path d="M26.0001 16.4999V1.49988" stroke="#D92D20" stroke-width="2" stroke-linecap="round" stroke-linejoin="round"/>
<path d="M26.0001 46.4997V34.4998" stroke="#D92D20" stroke-width="2" stroke-linecap="round" stroke-linejoin="round"/>
<path d="M18.6521 16.5001C20.6154 14.5749 23.2554 13.4965 26.0051 13.4965C28.7548 13.4965 31.3948 14.5749 33.3581 16.5001" stroke="#D92D20" stroke-width="2" stroke-linecap="round" stroke-linejoin="round"/>
<path d="M35.4881 28.5018C34.8592 29.8268 33.9598 31.0054 32.8479 31.9618C31.736 32.9181 30.4362 33.6311 29.0321 34.0548C27.628 34.4785 26.1507 34.6035 24.6954 34.4218C23.2401 34.2401 21.8389 33.7557 20.5821 32.9998" stroke="#D92D20" stroke-width="2" stroke-linecap="round" stroke-linejoin="round"/>
</g>
<defs>
<clipPath id="clip0_7540_196">
<rect width="47.9999" height="47.9999" fill="white" transform="translate(0.500153 -0.00012207)"/>
</clipPath>
</defs>
</svg>
