<svg width="49" height="48" viewBox="0 0 49 48" fill="none" xmlns="http://www.w3.org/2000/svg">
<g clip-path="url(#clip0_7540_423)">
<path d="M26.0721 34.2439L31.9121 34.8739" stroke="#D92D20" stroke-width="2" stroke-linecap="round" stroke-linejoin="round"/>
<path d="M25.0881 25.0839L32.8801 25.9259" stroke="#D92D20" stroke-width="2" stroke-linecap="round" stroke-linejoin="round"/>
<path d="M18.0181 1.58165C17.4298 1.64398 16.8597 1.82168 16.3402 2.10458C15.8207 2.38747 15.362 2.77001 14.9905 3.23032C14.619 3.69063 14.3419 4.21966 14.175 4.78716C14.0082 5.35467 13.9548 5.9495 14.0181 6.53764L18.0541 43.8216C18.1396 44.6124 18.5357 45.3368 19.1553 45.8356C19.7749 46.3345 20.5672 46.5668 21.3581 46.4816L24.342 46.1596C25.1328 46.074 25.8573 45.6779 26.3561 45.0583C26.8549 44.4387 27.0873 43.6464 27.002 42.8556L22.9741 5.57164C22.9108 4.98419 22.7323 4.41496 22.449 3.89648C22.1656 3.378 21.7829 2.92043 21.3227 2.5499C20.8624 2.17937 20.3337 1.90315 19.7667 1.73701C19.1997 1.57088 18.6055 1.51808 18.0181 1.58165Z" stroke="#D92D20" stroke-width="2" stroke-linecap="round" stroke-linejoin="round"/>
<path d="M24.5001 46.138L24.6581 46.16L27.6421 46.482C28.4329 46.5672 29.2252 46.3349 29.8448 45.836C30.4644 45.3372 30.8605 44.6128 30.9461 43.822L34.9741 6.53804C35.1005 5.35231 34.7511 4.16488 34.0027 3.23656C33.2543 2.30823 32.168 1.71491 30.9824 1.58692C29.7969 1.45893 28.609 1.80674 27.6797 2.55394C26.7504 3.30114 26.1556 4.38665 26.0261 5.57204L24.5001 19.696" stroke="#D92D20" stroke-width="2" stroke-linecap="round" stroke-linejoin="round"/>
<path d="M26.0361 33.9081L17.0881 34.8741" stroke="#D92D20" stroke-width="2" stroke-linecap="round" stroke-linejoin="round"/>
<path d="M25.0681 24.9598L16.1201 25.9258" stroke="#D92D20" stroke-width="2" stroke-linecap="round" stroke-linejoin="round"/>
<path d="M5.00012 13.4999V46.4998" stroke="#D92D20" stroke-width="2" stroke-linecap="round" stroke-linejoin="round"/>
<path d="M2.00012 40.4998H8.00011" stroke="#D92D20" stroke-width="2" stroke-linecap="round" stroke-linejoin="round"/>
<path d="M5.00012 1.49988C4.20447 1.49988 3.44141 1.81595 2.8788 2.37856C2.31619 2.94116 2.00012 3.70422 2.00012 4.49987V13.4999H8.00011V4.49987C8.00011 3.70422 7.68404 2.94116 7.12143 2.37856C6.55883 1.81595 5.79576 1.49988 5.00012 1.49988Z" stroke="#D92D20" stroke-width="2" stroke-linecap="round" stroke-linejoin="round"/>
<path d="M44.0001 13.4999V46.4998" stroke="#D92D20" stroke-width="2" stroke-linecap="round" stroke-linejoin="round"/>
<path d="M41.0001 40.4998H47.0001" stroke="#D92D20" stroke-width="2" stroke-linecap="round" stroke-linejoin="round"/>
<path d="M44.0001 1.49988C43.2044 1.49988 42.4413 1.81595 41.8787 2.37856C41.3161 2.94116 41.0001 3.70422 41.0001 4.49987V13.4999H47.0001V4.49987C47.0001 3.70422 46.684 2.94116 46.1214 2.37856C45.5588 1.81595 44.7957 1.49988 44.0001 1.49988Z" stroke="#D92D20" stroke-width="2" stroke-linecap="round" stroke-linejoin="round"/>
</g>
<defs>
<clipPath id="clip0_7540_423">
<rect width="47.9999" height="47.9999" fill="white" transform="translate(0.500122 -0.00012207)"/>
</clipPath>
</defs>
</svg>
