<svg width="48" height="48" viewBox="0 0 48 48" fill="none" xmlns="http://www.w3.org/2000/svg">
<g clip-path="url(#clip0_7540_897)">
<path d="M24.0001 1.5C19.55 1.5 15.1999 2.8196 11.4998 5.29193C7.79969 7.76425 4.91581 11.2783 3.21284 15.3896C1.50987 19.5009 1.0643 24.0249 1.93246 28.3895C2.80063 32.7541 4.94354 36.7632 8.09022 39.9098C11.2369 43.0565 15.246 45.1994 19.6106 46.0676C23.9751 46.9358 28.4991 46.4902 32.6105 44.7872C36.7218 43.0842 40.2358 40.2004 42.7081 36.5003C45.1805 32.8002 46.5001 28.45 46.5001 24C46.5001 21.0452 45.9181 18.1194 44.7873 15.3896C43.6566 12.6598 41.9993 10.1794 39.91 8.09009C37.8207 6.00077 35.3403 4.34344 32.6105 3.21271C29.8806 2.08198 26.9548 1.5 24.0001 1.5Z" stroke="#D92D20" stroke-width="2" stroke-linecap="round" stroke-linejoin="round"/>
<path d="M17.7901 33.508L13.9701 21.708L24 14.416L34.03 21.708L30.21 33.508H17.7901Z" stroke="#D92D20" stroke-width="2" stroke-linecap="round" stroke-linejoin="round"/>
<path d="M32.6021 3.20215L24.0001 9.00014L15.3981 3.20215" stroke="#D92D20" stroke-width="2" stroke-linecap="round" stroke-linejoin="round"/>
<path d="M29.1981 45.896L33.4761 37.1641L43.244 35.6641" stroke="#D92D20" stroke-width="2" stroke-linecap="round" stroke-linejoin="round"/>
<path d="M46.428 25.8179L39.574 18.9919L41.044 9.31396" stroke="#D92D20" stroke-width="2" stroke-linecap="round" stroke-linejoin="round"/>
<path d="M24.0001 9V14.416" stroke="#D92D20" stroke-width="2" stroke-linecap="round" stroke-linejoin="round"/>
<path d="M34.0301 21.7082L39.5741 18.9922" stroke="#D92D20" stroke-width="2" stroke-linecap="round" stroke-linejoin="round"/>
<path d="M1.57214 25.8179L8.42613 18.9919L6.95613 9.31396" stroke="#D92D20" stroke-width="2" stroke-linecap="round" stroke-linejoin="round"/>
<path d="M13.9701 21.7082L8.42615 18.9922" stroke="#D92D20" stroke-width="2" stroke-linecap="round" stroke-linejoin="round"/>
<path d="M30.2101 33.5078L33.4761 37.1638" stroke="#D92D20" stroke-width="2" stroke-linecap="round" stroke-linejoin="round"/>
<path d="M18.8021 45.896L14.5241 37.1641L4.7561 35.6641" stroke="#D92D20" stroke-width="2" stroke-linecap="round" stroke-linejoin="round"/>
<path d="M17.7901 33.5078L14.5241 37.1638" stroke="#D92D20" stroke-width="2" stroke-linecap="round" stroke-linejoin="round"/>
</g>
<defs>
<clipPath id="clip0_7540_897">
<rect width="47.9999" height="47.9999" fill="white"/>
</clipPath>
</defs>
</svg>
