<svg width="49" height="48" viewBox="0 0 49 48" fill="none" xmlns="http://www.w3.org/2000/svg">
<path d="M39.5001 16.9999C42.3996 16.9999 44.7501 14.6494 44.7501 11.7499C44.7501 8.85038 42.3996 6.49988 39.5001 6.49988C36.6006 6.49988 34.2501 8.85038 34.2501 11.7499C34.2501 14.6494 36.6006 16.9999 39.5001 16.9999Z" stroke="#D92D20" stroke-width="2" stroke-linecap="round" stroke-linejoin="round"/>
<path d="M15.2581 22.614L22.9201 17.824L20.3001 14.82C20.0363 14.5242 19.8338 14.179 19.7042 13.8044C19.5746 13.4298 19.5206 13.0333 19.5451 12.6377C19.5697 12.2421 19.6724 11.8553 19.8473 11.4996C20.0222 11.1439 20.2659 10.8265 20.5643 10.5655C20.8626 10.3046 21.2097 10.1053 21.5855 9.97929C21.9613 9.85326 22.3583 9.80296 22.7537 9.83127C23.149 9.85959 23.5348 9.96597 23.8888 10.1443C24.2428 10.3226 24.558 10.5692 24.8161 10.87L33.8461 21.2" stroke="#D92D20" stroke-width="2" stroke-linecap="round" stroke-linejoin="round"/>
<path d="M2.00014 39.4999C3.4604 39.4975 4.89972 39.1524 6.20233 38.4924C7.50494 37.8324 8.63448 36.876 9.50012 35.7C10.3636 36.8784 11.4927 37.8368 12.7957 38.4974C14.0988 39.158 15.5392 39.5022 17.0001 39.5022C18.4611 39.5022 19.9014 39.158 21.2045 38.4974C22.5075 37.8368 23.6366 36.8784 24.5001 35.7C25.3636 36.8784 26.4927 37.8368 27.7957 38.4974C29.0988 39.158 30.5391 39.5022 32.0001 39.5022C33.461 39.5022 34.9014 39.158 36.2045 38.4974C37.5075 37.8368 38.6366 36.8784 39.5001 35.7C40.3657 36.876 41.4953 37.8324 42.7979 38.4924C44.1005 39.1524 45.5398 39.4975 47.0001 39.4999" stroke="#D92D20" stroke-width="2" stroke-linecap="round" stroke-linejoin="round"/>
<path d="M2.00014 30.5001C3.4604 30.4976 4.89972 30.1525 6.20233 29.4926C7.50494 28.8326 8.63448 27.8761 9.50012 26.7001C10.3636 27.8785 11.4927 28.8369 12.7957 29.4975C14.0988 30.1581 15.5392 30.5024 17.0001 30.5024C18.4611 30.5024 19.9014 30.1581 21.2045 29.4975C22.5075 28.8369 23.6366 27.8785 24.5001 26.7001C25.3636 27.8785 26.4927 28.8369 27.7957 29.4975C29.0988 30.1581 30.5391 30.5024 32.0001 30.5024C33.461 30.5024 34.9014 30.1581 36.2045 29.4975C37.5075 28.8369 38.6366 27.8785 39.5001 26.7001C40.3657 27.8761 41.4953 28.8326 42.7979 29.4926C44.1005 30.1525 45.5398 30.4976 47.0001 30.5001" stroke="#D92D20" stroke-width="2" stroke-linecap="round" stroke-linejoin="round"/>
</svg>
