<svg width="48" height="48" viewBox="0 0 48 48" fill="none" xmlns="http://www.w3.org/2000/svg">
<g clip-path="url(#clip0_7540_356)">
<path d="M28.5001 12.7499C31.3996 12.7499 33.7501 10.3994 33.7501 7.49987C33.7501 4.60038 31.3996 2.24988 28.5001 2.24988C25.6006 2.24988 23.2501 4.60038 23.2501 7.49987C23.2501 10.3994 25.6006 12.7499 28.5001 12.7499Z" stroke="#D92D20" stroke-width="2" stroke-linecap="round" stroke-linejoin="round"/>
<path d="M44.612 16.714L40.052 14.888C38.7493 14.371 37.3567 14.1186 35.9554 14.1454C34.5541 14.1721 33.1721 14.4776 31.8901 15.044L23.6001 18.73C23.2326 18.8914 22.8368 18.9784 22.4355 18.9859C22.0342 18.9935 21.6354 18.9214 21.2621 18.774L16.1121 16.714C15.3732 16.4188 14.5473 16.4292 13.8161 16.7429C13.0849 17.0567 12.5083 17.6481 12.2131 18.387C11.9179 19.1258 11.9283 19.9517 12.2421 20.6829C12.5558 21.4141 13.1472 21.9908 13.8861 22.2859L19.0361 24.3459C21.1073 25.1674 23.4087 25.1966 25.5001 24.4279V28.4999L21.9001 31.1979C21.156 31.7583 20.552 32.4836 20.1356 33.3168C19.7192 34.15 19.5016 35.0684 19.5001 35.9999V43.4999C19.5001 44.2956 19.8161 45.0586 20.3788 45.6212C20.9414 46.1838 21.7044 46.4999 22.5001 46.4999C23.2957 46.4999 24.0588 46.1838 24.6214 45.6212C25.184 45.0586 25.5001 44.2956 25.5001 43.4999V35.9999L30.0001 32.6259V35.9999C29.9991 36.544 30.1471 37.078 30.4281 37.5439L34.928 45.0439C35.1287 45.3858 35.3952 45.6846 35.712 45.9229C36.0289 46.1612 36.3898 46.3343 36.774 46.4323C37.1582 46.5303 37.5579 46.5511 37.9502 46.4936C38.3425 46.4362 38.7195 46.3015 39.0594 46.0975C39.3993 45.8934 39.6954 45.624 39.9306 45.3048C40.1657 44.9856 40.3353 44.623 40.4295 44.2379C40.5236 43.8528 40.5405 43.4528 40.4792 43.0611C40.4178 42.6694 40.2794 42.2938 40.072 41.9559L36 35.1679V20.144C36.6234 20.1209 37.2448 20.2285 37.824 20.46L42.386 22.2859C42.7519 22.4321 43.143 22.5048 43.5369 22.4998C43.9309 22.4948 44.32 22.4123 44.682 22.257C45.0441 22.1016 45.372 21.8765 45.647 21.5944C45.9221 21.3123 46.1389 20.9788 46.285 20.613C46.4312 20.2471 46.5039 19.856 46.4989 19.4621C46.4939 19.0681 46.4114 18.679 46.256 18.317C46.1007 17.9549 45.8755 17.627 45.5935 17.352C45.3114 17.0769 44.9779 16.8601 44.612 16.714Z" stroke="#D92D20" stroke-width="2" stroke-linecap="round" stroke-linejoin="round"/>
<path d="M8.81767 12.7118C11.0731 11.668 11.7732 8.3839 10.3813 5.37667C8.98951 2.36944 6.03283 0.777822 3.77741 1.82169C1.52199 2.86557 0.821904 6.14963 2.21373 9.15686C3.60556 12.1641 6.56224 13.7557 8.81767 12.7118Z" stroke="#D92D20" stroke-width="2" stroke-linecap="round" stroke-linejoin="round"/>
<path d="M9.54611 12.2518L12.8821 17.3738" stroke="#D92D20" stroke-width="2" stroke-linecap="round" stroke-linejoin="round"/>
<path d="M4.50012 29.9999C6.15697 29.9999 7.50011 28.6567 7.50011 26.9999C7.50011 25.343 6.15697 23.9999 4.50012 23.9999C2.84327 23.9999 1.50012 25.343 1.50012 26.9999C1.50012 28.6567 2.84327 29.9999 4.50012 29.9999Z" stroke="#D92D20" stroke-width="2" stroke-linecap="round" stroke-linejoin="round"/>
</g>
<defs>
<clipPath id="clip0_7540_356">
<rect width="47.9999" height="47.9999" fill="white"/>
</clipPath>
</defs>
</svg>
