<svg width="49" height="48" viewBox="0 0 49 48" fill="none" xmlns="http://www.w3.org/2000/svg">
<g clip-path="url(#clip0_7540_146)">
<path d="M27.4981 17.25C30.3976 17.25 32.7481 14.8995 32.7481 12C32.7481 9.1005 30.3976 6.75 27.4981 6.75C24.5986 6.75 22.2481 9.1005 22.2481 12C22.2481 14.8995 24.5986 17.25 27.4981 17.25Z" stroke="#D92D20" stroke-width="2" stroke-linecap="round" stroke-linejoin="round"/>
<path d="M33.5001 46.4998V38.8998C36.0126 41.942 39.1325 44.4263 42.6601 46.1938C43.3719 46.5494 44.1959 46.6078 44.9507 46.3559C45.7056 46.104 46.3294 45.5626 46.6851 44.8508C47.0407 44.139 47.0991 43.315 46.8472 42.5602C46.5953 41.8053 46.0539 41.1815 45.3421 40.8258C43.9421 40.1278 35.0001 35.2558 35.0001 27.3638L41.2441 24.2438C43.0079 23.3576 44.4324 21.9174 45.2993 20.1441C46.1663 18.3708 46.4279 16.3621 46.0441 14.4258L43.9981 6.32186C43.9276 5.92913 43.7794 5.55441 43.5623 5.21964C43.3452 4.88487 43.0635 4.59677 42.7336 4.37222C42.4038 4.14766 42.0325 3.99116 41.6414 3.91188C41.2504 3.83259 40.8474 3.83211 40.4562 3.91046C40.065 3.98882 39.6933 4.14443 39.3629 4.3682C39.0326 4.59197 38.7501 4.87939 38.5322 5.21364C38.3143 5.5479 38.1653 5.92226 38.0938 6.31482C38.0224 6.70739 38.0299 7.11026 38.1161 7.49986L40.1581 15.5998C40.2877 16.2455 40.2013 16.9159 39.9122 17.5076C39.623 18.0993 39.1472 18.5794 38.5581 18.8738L31.0501 22.6198C25.2881 25.4931 18.9388 26.9923 12.5001 26.9998C11.7045 26.9998 10.9414 27.3159 10.3788 27.8785C9.81622 28.4411 9.50015 29.2042 9.50015 29.9998C9.50015 30.7955 9.81622 31.5585 10.3788 32.1211C10.9414 32.6837 11.7045 32.9998 12.5001 32.9998C17.5983 32.994 22.6626 32.1709 27.5001 30.5618V46.4998" stroke="#D92D20" stroke-width="2" stroke-linecap="round" stroke-linejoin="round"/>
<path d="M7.99814 13.5C11.3118 13.5 13.9981 10.8137 13.9981 7.49999C13.9981 4.18629 11.3118 1.5 7.99814 1.5C4.68444 1.5 1.99815 4.18629 1.99815 7.49999C1.99815 10.8137 4.68444 13.5 7.99814 13.5Z" stroke="#D92D20" stroke-width="2" stroke-linecap="round" stroke-linejoin="round"/>
</g>
<defs>
<clipPath id="clip0_7540_146">
<rect width="47.9999" height="47.9999" fill="white" transform="translate(0.500168)"/>
</clipPath>
</defs>
</svg>
