<svg width="49" height="48" viewBox="0 0 49 48" fill="none" xmlns="http://www.w3.org/2000/svg">
<g clip-path="url(#clip0_7521_135104)">
<g clip-path="url(#clip1_7521_135104)">
<path d="M24.5001 46.4998C36.9265 46.4998 47 36.4262 47 23.9998C47 11.5735 36.9265 1.49988 24.5001 1.49988C12.0737 1.49988 2.00012 11.5735 2.00012 23.9998C2.00012 36.4262 12.0737 46.4998 24.5001 46.4998Z" stroke="#D92D20" stroke-width="2" stroke-linecap="round" stroke-linejoin="round"/>
<path d="M41.722 38.4799C40.3605 34.7758 38.0554 31.4914 35.0349 28.9518C32.0143 26.4121 28.3829 24.7052 24.5001 23.9999" stroke="#D92D20" stroke-width="2" stroke-linecap="round" stroke-linejoin="round"/>
<path d="M3.2301 31.3579C7.10945 32.1259 11.1232 31.8493 14.8605 30.5564C18.5978 29.2635 21.9245 27.0008 24.5001 23.9999" stroke="#D92D20" stroke-width="2" stroke-linecap="round" stroke-linejoin="round"/>
<path d="M28.278 1.8158C25.7409 4.84808 24.0543 8.49956 23.3905 12.3971C22.7268 16.2947 23.1096 20.2986 24.5 23.9998" stroke="#D92D20" stroke-width="2" stroke-linecap="round" stroke-linejoin="round"/>
<path d="M10.3841 31.5999C7.96423 28.36 6.46186 24.5281 6.03496 20.5068C5.60806 16.4856 6.2724 12.4236 7.95813 8.74792" stroke="#D92D20" stroke-width="2" stroke-linecap="round" stroke-linejoin="round"/>
<path d="M17.9142 29.2336C15.0956 25.2804 13.6311 20.5218 13.7392 15.6679C13.8474 10.8141 15.5224 6.12534 18.5142 2.30164" stroke="#D92D20" stroke-width="2" stroke-linecap="round" stroke-linejoin="round"/>
<path d="M24.6501 7.90968C28.5816 7.33412 32.5954 7.80938 36.2837 9.28719C39.9721 10.765 43.2036 13.1927 45.6501 16.3237" stroke="#D92D20" stroke-width="2" stroke-linecap="round" stroke-linejoin="round"/>
<path d="M23.1 15.7218C27.8583 15.085 32.6958 15.9781 36.9131 18.2719C41.1304 20.5657 44.5088 24.1413 46.56 28.4818" stroke="#D92D20" stroke-width="2" stroke-linecap="round" stroke-linejoin="round"/>
<path d="M38.1621 32.1498C36.6415 35.8883 34.1443 39.1495 30.9317 41.5923C27.719 44.0351 23.909 45.5698 19.9001 46.0358" stroke="#D92D20" stroke-width="2" stroke-linecap="round" stroke-linejoin="round"/>
<path d="M32.2021 26.9218C30.288 31.3458 27.0039 35.0382 22.8333 37.4553C18.6628 39.8724 13.8263 40.8863 9.03613 40.3477" stroke="#D92D20" stroke-width="2" stroke-linecap="round" stroke-linejoin="round"/>
</g>
</g>
<defs>
<clipPath id="clip0_7521_135104">
<rect width="47.9999" height="47.9999" fill="white" transform="translate(0.500122 -0.00012207)"/>
</clipPath>
<clipPath id="clip1_7521_135104">
<rect width="47.9999" height="47.9999" fill="white" transform="translate(0.500122 -0.00012207)"/>
</clipPath>
</defs>
</svg>
