<svg width="49" height="48" viewBox="0 0 49 48" fill="none" xmlns="http://www.w3.org/2000/svg"><g clip-path="url(#clip0_7540_120)" stroke="#D92D20" stroke-width="2" stroke-linecap="round" stroke-linejoin="round"><path d="M29 22.5v-21L38 9l-9 6"/><path d="M23 7.5h-1.5a19.5 19.5 0 000 39H47M47 7.5h-4.5"/><path d="M47 22.5H21.5a4.5 4.5 0 000 9H47M42.072 15H38M17.788 15.6a12.186 12.186 0 00-4.872 3.024M9.86 24.132a11.698 11.698 0 000 5.736M12.916 35.376a12.186 12.186 0 004.872 3.024M24.104 39H29.9M36.276 39h5.796"/></g><defs><clipPath id="clip0_7540_120"><path fill="#fff" transform="translate(.5)" d="M0 0h48v48H0z"/></clipPath></defs></svg>