<svg width="49" height="48" viewBox="0 0 49 48" fill="none" xmlns="http://www.w3.org/2000/svg"><g clip-path="url(#clip0_7540_1076)" stroke="#D92D20" stroke-width="2" stroke-linecap="round" stroke-linejoin="round"><path d="M14.804 44.304a7.5 7.5 0 01-10.6-10.6l1.062-1.06 10.6 10.6-1.062 1.06zM20.108 39L9.5 28.392l-4.243 4.242 10.607 10.607 4.243-4.243z"/><path d="M20.1 39l25-9.754a3 3 0 001.908-2.8V22.5a3 3 0 00-3-3h-6v-6a3 3 0 00-3-3h-6v-6a3 3 0 00-3-3H22.05a3 3 0 00-2.8 1.908L9.5 28.4 20.1 39zM29 10.5L12.974 31.868M38 19.5L16.632 35.526"/></g><defs><clipPath id="clip0_7540_1076"><path fill="#fff" transform="translate(.5)" d="M0 0h48v48H0z"/></clipPath></defs></svg>