<svg width="49" height="48" viewBox="0 0 49 48" fill="none" xmlns="http://www.w3.org/2000/svg"><g clip-path="url(#clip0_7540_1063)" stroke="#D92D20" stroke-width="2" stroke-linecap="round" stroke-linejoin="round"><path d="M26 12a5.25 5.25 0 100-10.5A5.25 5.25 0 0026 12zM41.588 10.558a2.988 2.988 0 00-3.53 2.354 4.95 4.95 0 01-5.69 3.924L16.074 14.5A9.725 9.725 0 005.1 21.77a3 3 0 002.912 3.73 3 3 0 002.888-2.27 3.718 3.718 0 014.276-2.8l3.86.554-2.536 8.832a2.984 2.984 0 01-2.5 2.296l-6.428.918a3 3 0 10.85 5.94l6.428-.916A8.947 8.947 0 0021.9 32.6l1.326.38a2.975 2.975 0 012.15 3.254l-.86 6.9a3 3 0 105.952.744l.862-6.896a8.954 8.954 0 00-6.45-9.782l-1.278-.364 1.44-4.988 6.436.922a10.954 10.954 0 0012.464-8.684 3 3 0 00-2.354-3.528zM36.5 6l2.422 5.328M42.106 18.334L44 22.5"/></g><defs><clipPath id="clip0_7540_1063"><path fill="#fff" transform="translate(.5)" d="M0 0h48v48H0z"/></clipPath></defs></svg>