<svg width="49" height="48" viewBox="0 0 49 48" fill="none" xmlns="http://www.w3.org/2000/svg"><path d="M30.5 12a4.5 4.5 0 100-9 4.5 4.5 0 000 9zM9.5 45a7.5 7.5 0 100-15 7.5 7.5 0 000 15zM39.5 45a7.5 7.5 0 100-15 7.5 7.5 0 000 15zM24.5 40.5a3 3 0 01-3-3 11.97 11.97 0 00-6.472-10.656 3 3 0 01-.68-4.834l8.086-7.684a3 3 0 014.75.832c.014.026 2.29 4.342 6.316 4.342a3 3 0 010 6 12.64 12.64 0 01-9.418-4.462L21.178 23.8A17.939 17.939 0 0127.5 37.5a3 3 0 01-3 3z" stroke="#D92D20" stroke-width="2" stroke-linecap="round" stroke-linejoin="round"/></svg>