<svg width="48" height="48" viewBox="0 0 48 48" fill="none" xmlns="http://www.w3.org/2000/svg"><g clip-path="url(#clip0_7540_284)" stroke="#D92D20" stroke-width="2" stroke-linecap="round" stroke-linejoin="round"><path d="M45 31.5c0 1.656-1.344 4.5-3 4.5s-3-2.844-3-4.5a3 3 0 116 0z"/><path d="M43.464 35.256A19.048 19.048 0 0146.5 42a4.5 4.5 0 11-9 0 19.046 19.046 0 013.036-6.744M27 12a5.25 5.25 0 100-10.5A5.25 5.25 0 0027 12zM37.45 21.25l-19.974-8.714a8.918 8.918 0 00-9.366 1.336L5.8 15.8a3.001 3.001 0 103.848 4.6l2.308-1.928a2.96 2.96 0 013.118-.442l3.526 1.544-4.754 9.026A3 3 0 0013.5 30v7.5l-4.8 3.6a3 3 0 003.6 4.8l6-4.5a3 3 0 001.2-2.4v-5.166l5.048 2.612.978 7.444a3 3 0 003.372 2.574 3 3 0 002.584-3.364l-.976-7.438a6 6 0 00-3.2-4.558l-6.286-3.252 3.098-5.882 10.934 4.77a3 3 0 102.4-5.5l-.002.01zM10.27 26.924a4.509 4.509 0 01-8.55-2.856"/></g><defs><clipPath id="clip0_7540_284"><path fill="#fff" d="M0 0h48v48H0z"/></clipPath></defs></svg>