<svg width="49" height="48" viewBox="0 0 49 48" fill="none" xmlns="http://www.w3.org/2000/svg"><g clip-path="url(#clip0_7540_31)" stroke="#D92D20" stroke-width="2" stroke-linecap="round" stroke-linejoin="round"><path d="M17 16.5V6a4.5 4.5 0 10-9 0v10.5a22.952 22.952 0 00-6 15 22.836 22.836 0 005.018 13.866 3 3 0 002.35 1.134h6.264a2.998 2.998 0 002.35-1.134A22.836 22.836 0 0023 31.5a22.951 22.951 0 00-6-15zM25.422 44.984a15 15 0 100-26.972M8 16.5h9M17 10.5H8M32.75 30a.75.75 0 01.75.75M32 30.75a.75.75 0 01.75-.75M32.75 31.5a.75.75 0 01-.75-.75M33.5 30.75a.75.75 0 01-.75.75M40.25 28.5a.75.75 0 01.75.75M39.5 29.25a.75.75 0 01.75-.75M40.25 30a.75.75 0 01-.75-.75M41 29.25a.75.75 0 01-.75.75M34.25 22.5a.75.75 0 01.75.75M33.5 23.25a.75.75 0 01.75-.75M34.25 24a.75.75 0 01-.75-.75M35 23.25a.75.75 0 01-.75.75"/></g><defs><clipPath id="clip0_7540_31"><path fill="#fff" transform="translate(.5)" d="M0 0h48v48H0z"/></clipPath></defs></svg>