<svg width="49" height="48" viewBox="0 0 49 48" fill="none" xmlns="http://www.w3.org/2000/svg"><path d="M28.25 13.5a5.25 5.25 0 100-10.5 5.25 5.25 0 000 10.5zM47 42a3 3 0 01-3 3h-6a3 3 0 010-6h6a3 3 0 013 3zM44 39v-3a3 3 0 00-3-3h-3M35.354 20.778a12.04 12.04 0 01-5.244-1.884 24.42 24.42 0 00-24.61-.968A3.004 3.004 0 108.378 23.2a17.888 17.888 0 017.954-2.096l-4.902 10.2a3.015 3.015 0 01-2.704 1.7H5a3 3 0 000 6h3.726a9.043 9.043 0 008.112-5.104l.492-1.024L20.3 35.1a3.015 3.015 0 011.2 2.4V42a3 3 0 006 0v-4.5a9.029 9.029 0 00-3.6-7.2l-3.922-2.94 2.612-5.44a17.406 17.406 0 014.236 2 18.068 18.068 0 007.874 2.822 3 3 0 10.654-5.964z" stroke="#D92D20" stroke-width="2" stroke-linecap="round" stroke-linejoin="round"/></svg>