<svg width="48" height="48" viewBox="0 0 48 48" fill="none" xmlns="http://www.w3.org/2000/svg"><g clip-path="url(#clip0_7540_328)" stroke="#D92D20" stroke-width="2" stroke-linecap="round" stroke-linejoin="round"><path d="M26.624 12a5.25 5.25 0 100-10.5 5.25 5.25 0 000 10.5zM8.624 46.5a5.25 5.25 0 100-10.5 5.25 5.25 0 000 10.5z"/><path d="M17.762 35.902L20.114 21h-.28a2.982 2.982 0 00-2.684 1.658l-2.842 5.684a3 3 0 11-5.368-2.684l2.842-5.684A8.958 8.958 0 0119.834 15h13.582a2.984 2.984 0 002.684-1.658l2.84-5.684a3 3 0 115.368 2.684l-2.842 5.684A8.956 8.956 0 0133.416 21h-1.23l-3.6 22.81a3 3 0 11-5.924-.936l2.044-12.94"/></g><defs><clipPath id="clip0_7540_328"><path fill="#fff" d="M0 0h48v48H0z"/></clipPath></defs></svg>