<svg width="48" height="48" viewBox="0 0 48 48" fill="none" xmlns="http://www.w3.org/2000/svg"><g clip-path="url(#clip0_7540_181)" stroke="#D92D20" stroke-width="2" stroke-linecap="round" stroke-linejoin="round"><path d="M6 31.5a4.5 4.5 0 100-9 4.5 4.5 0 000 9zM44.422 1.644a3 3 0 00-3.776 1.934S32.752 28.044 30.374 35.42a3 3 0 01-2.856 2.08H15a4.5 4.5 0 100 9h13.734a6 6 0 005.71-4.158l11.91-36.92a3 3 0 00-1.932-3.778zM18 37.5l9 9M32.336 29.336l4.766 4.766M37.092 14.592l4.766 4.766"/></g><defs><clipPath id="clip0_7540_181"><path fill="#fff" d="M0 0h48v48H0z"/></clipPath></defs></svg>