<svg width="21" height="20" viewBox="0 0 21 20" fill="none" xmlns="http://www.w3.org/2000/svg"><path d="M7.167 14.167h6.666M9.681 2.303L4.03 6.7c-.377.294-.566.441-.702.625-.12.163-.21.347-.265.542C3 8.086 3 8.326 3 8.804v6.03c0 .933 0 1.4.182 1.756.16.314.414.569.728.729.357.181.823.181 1.757.181h9.666c.934 0 1.4 0 1.757-.181.314-.16.569-.415.728-.729.182-.356.182-.823.182-1.757V8.804c0-.478 0-.718-.062-.938a1.665 1.665 0 00-.265-.542c-.136-.184-.325-.33-.702-.625l-5.652-4.396c-.293-.227-.44-.341-.601-.385a.834.834 0 00-.436 0c-.161.044-.308.158-.6.385z" stroke="#667085" stroke-width="1.67" stroke-linecap="round" stroke-linejoin="round"/></svg>