<svg width="186" height="53" viewBox="0 0 186 53" fill="none" xmlns="http://www.w3.org/2000/svg"><path fill-rule="evenodd" clip-rule="evenodd" d="M77.79 13.98c-.771.372-1.773.556-3.014.556-1.616 0-2.89-.472-3.816-1.42-.925-.947-1.388-2.208-1.388-3.786 0-1.675.52-3.04 1.562-4.085s2.39-1.567 4.055-1.567c1.027 0 1.895.13 2.6.389v2.28c-.705-.421-1.512-.63-2.412-.63-.991 0-1.79.31-2.398.929-.608.62-.912 1.46-.912 2.518 0 1.06.286 1.823.861 2.428.572.602 1.346.905 2.315.905.97 0 1.772-.224 2.543-.674v2.158h.003zM77.58.5l-1.748 2.385H74.01L72.28.5h1.505l1.143 1.383L76.075.5h1.504zm8.37 13.856h-6.323V3.858h6.084v1.92h-3.704v2.338h3.447v1.92h-3.447v2.4h3.942v1.92zm1.207-.404v-2.338c.427.357.89.62 1.393.796.499.177 1.005.267 1.515.267.3 0 .56-.029.785-.08.224-.053.409-.125.557-.223a.963.963 0 00.337-.335.852.852 0 00.108-.421.887.887 0 00-.177-.548 1.881 1.881 0 00-.485-.447 4.93 4.93 0 00-.723-.396 30.625 30.625 0 00-.904-.39c-.825-.338-1.436-.756-1.845-1.25-.405-.493-.608-1.087-.608-1.786 0-.548.112-1.016.333-1.409.22-.392.52-.717.9-.969.38-.256.822-.44 1.32-.558a6.872 6.872 0 011.589-.18c.557 0 1.038.032 1.46.1.424.065.815.166 1.176.307v2.19a3.311 3.311 0 00-.578-.32 4.585 4.585 0 00-1.302-.368 4.787 4.787 0 00-.623-.047c-.27 0-.513.025-.734.08-.22.05-.408.122-.56.216a1.123 1.123 0 00-.355.331.79.79 0 00-.126.436c0 .177.047.331.14.472.095.137.225.27.398.396.174.126.38.245.626.364s.521.241.832.371c.423.177.803.364 1.14.559.336.198.625.421.864.67.239.248.423.533.553.854.127.32.192.688.192 1.113 0 .587-.112 1.077-.333 1.477-.224.396-.528.72-.911.965a3.88 3.88 0 01-1.335.533 7.717 7.717 0 01-1.61.159c-.564 0-1.128-.05-1.649-.148a5.031 5.031 0 01-1.356-.436l-.004-.007zm17.68.404h-2.999l-3.067-4.561c-.061-.087-.152-.281-.278-.577h-.036v5.138h-2.38V3.858h2.38v4.964h.036a7.14 7.14 0 01.293-.584l2.904-4.377h2.832l-3.675 5.004 3.99 5.49zm8.956-10.498h-2.514l-1.729 3.944a3.9 3.9 0 00-.228.83h-.029c-.13-.502-.213-.786-.242-.858l-1.7-3.916h-2.713l3.346 6.809v3.689h2.38v-3.733l3.432-6.762-.003-.003zM111.279.514l-2.297 2.37h-1.675l1.906-2.37h2.066zm-41.05 32.54V22.554h3.734c3.743 0 5.613 1.704 5.613 5.116 0 1.635-.51 2.94-1.533 3.916-1.02.976-2.38 1.463-4.084 1.463h-3.733l.004.003zm2.38-8.579v6.658h1.176c1.028 0 1.834-.306 2.42-.922.586-.616.879-1.456.879-2.511 0-1.002-.29-1.79-.872-2.364-.578-.572-1.392-.86-2.441-.86H72.61zm15.044 8.578H81.33V22.555h6.084v1.92H83.71v2.338h3.447v1.92H83.71v2.4h3.943v1.92zm10.963 0h-2.59l-.738-2.338h-3.772l-.73 2.338H88.21l3.837-10.498h2.818l3.747 10.498h.004zM94.742 28.9l-1.14-3.523a4.534 4.534 0 01-.177-.944h-.057a4.067 4.067 0 01-.185.915l-1.15 3.552h2.713-.004zm11.285-4.424h-3.718v2.58h3.418v1.92h-3.418v4.078h-2.38V22.555h6.098v1.92zm8.008 8.578h-6.279V22.555h2.38v8.578h3.899v1.92zm9.368-10.498l-3.433 6.762v3.733h-2.38v-3.69l-3.345-6.808h2.712l1.7 3.916c.029.072.113.356.243.857h.029c.065-.353.141-.627.228-.829l1.728-3.944h2.514l.004.003zm13.202 10.498h-2.348V26.77c0-.68.029-1.43.087-2.248h-.058c-.123.645-.231 1.106-.332 1.39l-2.471 7.141h-1.942l-2.514-7.068c-.069-.191-.177-.677-.333-1.466h-.065a46.36 46.36 0 01.094 2.723v5.808h-2.137V22.552h3.475l2.153 6.221c.17.497.296.998.372 1.499h.047c.13-.58.271-1.084.42-1.513l2.155-6.207h3.39V33.05l.007.003zm4.771-3.613v3.613h-2.38V22.555h3.721c2.659 0 3.986 1.113 3.986 3.347 0 1.055-.379 1.906-1.143 2.558-.759.652-1.779.976-3.052.976h-1.132v.004zm0-5.07v3.268h.933c1.266 0 1.895-.55 1.895-1.653s-.633-1.618-1.895-1.618h-.933v.004zm10.138-1.815v1.83h-.89v6.838h.89v1.83h-4.156v-1.83h.89v-6.838h-.89v-1.83h4.156zm5.899 6.33c0 1.405-.325 2.478-.98 3.228-.655.746-1.602 1.12-2.843 1.12a4.066 4.066 0 01-1.537-.284v-2.22c.405.31.864.465 1.371.465 1.085 0 1.627-.8 1.627-2.403v-6.236h2.362v6.33zm1.827 3.761v-2.338c.427.353.889.62 1.392.796a4.524 4.524 0 001.516.267c.3 0 .56-.03.785-.08a1.77 1.77 0 00.557-.223.958.958 0 00.336-.335.889.889 0 00-.065-.97 1.878 1.878 0 00-.485-.446 4.92 4.92 0 00-.723-.396 31.34 31.34 0 00-.904-.39c-.825-.338-1.436-.756-1.845-1.25-.405-.493-.608-1.087-.608-1.786 0-.548.112-1.016.333-1.409a2.79 2.79 0 01.901-.969c.379-.256.821-.44 1.32-.558a6.874 6.874 0 011.588-.18 9.19 9.19 0 011.461.1c.423.065.814.166 1.176.307v2.19a3.331 3.331 0 00-.579-.32 4.57 4.57 0 00-1.302-.368 4.792 4.792 0 00-.622-.047c-.272 0-.514.025-.735.08a1.86 1.86 0 00-.56.216 1.121 1.121 0 00-.355.331.79.79 0 00-.126.436c0 .177.047.331.141.472.094.137.224.27.398.396.173.126.379.245.625.364s.521.241.832.371c.423.177.803.364 1.14.558.336.199.625.422.864.67.239.25.423.534.553.854.127.321.192.688.192 1.114 0 .587-.112 1.077-.333 1.477-.224.396-.528.72-.911.965-.38.249-.825.425-1.335.533a7.717 7.717 0 01-1.609.159c-.565 0-1.129-.05-1.65-.148a5.025 5.025 0 01-1.356-.436l-.007-.007zm17.679.404h-2.998l-3.067-4.561c-.062-.087-.152-.281-.279-.577h-.036v5.138h-2.38V22.552h2.38v4.964h.036c.058-.137.156-.331.293-.584l2.905-4.377h2.828l-3.675 5.004 3.99 5.49h.003zm8.956-10.498h-2.514l-1.729 3.944a4.023 4.023 0 00-.228.829h-.028a12.16 12.16 0 00-.243-.857l-1.7-3.916h-2.713l3.346 6.808v3.69h2.38v-3.733l3.433-6.762-.004-.003zm-2.514-3.344l-2.297 2.37h-1.674l1.91-2.37h2.065-.004zM79.005 41.25l-3.632 10.498h-2.69L69.097 41.25h2.557l2.2 7.306c.118.396.187.746.212 1.048h.044c.036-.327.112-.688.228-1.077l2.18-7.273h2.486v-.004zm9.212 0l-3.433 6.762v3.732h-2.38v-3.689l-3.345-6.809h2.713l1.7 3.916c.029.072.112.357.242.858h.029c.065-.353.14-.627.228-.829l1.729-3.944h2.513l.004.003zm-2.514-3.343l-2.297 2.37h-1.674l1.91-2.37h2.065-.004zm3.704 13.841V41.25h3.838c1.175 0 2.08.216 2.712.645.633.429.948 1.03.948 1.812 0 .566-.192 1.063-.579 1.488-.383.421-.871.717-1.472.886v.029c.749.094 1.35.367 1.798.829.448.457.672 1.015.672 1.675 0 .962-.347 1.725-1.037 2.287-.691.562-1.635.843-2.829.843h-4.051v.004zm2.38-8.758v2.49h1.042c.488 0 .875-.12 1.157-.357.282-.238.42-.562.42-.976 0-.771-.58-1.157-1.733-1.157h-.89.004zm0 4.244v2.774h1.284c.55 0 .98-.126 1.291-.382.311-.256.467-.602.467-1.041 0-.44-.152-.75-.46-.99-.307-.242-.734-.361-1.28-.361h-1.302zm11.726 4.694c-1.512 0-2.738-.49-3.69-1.466-.95-.98-1.424-2.255-1.424-3.826 0-1.66.48-3.001 1.447-4.028.965-1.023 2.246-1.538 3.837-1.538 1.505 0 2.724.49 3.65 1.473.929.98 1.392 2.274 1.392 3.88 0 1.607-.481 2.98-1.447 3.992-.962 1.009-2.217 1.513-3.765 1.513zm.101-8.815c-.831 0-1.493.31-1.985.933-.489.623-.735 1.448-.735 2.471 0 1.023.246 1.863.735 2.468.488.605 1.132.908 1.928.908.795 0 1.464-.296 1.945-.883.478-.587.72-1.405.72-2.45 0-1.044-.231-1.934-.698-2.54-.466-.605-1.103-.907-1.913-.907h.003zm15.705 8.635h-2.723l-1.642-2.702a8.634 8.634 0 00-.351-.551 2.878 2.878 0 00-.34-.41 1.338 1.338 0 00-.362-.264.904.904 0 00-.405-.093h-.64v4.017h-2.38V41.245h3.765c2.561 0 3.838.95 3.838 2.853 0 .367-.055.706-.167 1.016a2.82 2.82 0 01-.477.835 3.071 3.071 0 01-.745.645c-.29.18-.615.325-.973.425v.03c.159.046.307.125.456.237.144.112.289.238.426.386.134.144.268.302.391.471.127.166.242.332.344.494l1.989 3.105-.004.004zm-6.467-8.725v2.925h1.027c.51 0 .919-.148 1.227-.44.314-.299.47-.666.47-1.106 0-.918-.554-1.376-1.653-1.376h-1.071v-.003z" fill="#1A171B"/><path fill-rule="evenodd" clip-rule="evenodd" d="M27.22 52.107C12.616 51.917.727 39.963.727 25.372c0-7.31 2.988-13.96 7.806-18.798l.108.068c2.297 1.449 4.793 4.165 7.158 7.598 2.456 3.563 4.767 7.883 6.569 12.365a76.522 76.522 0 014.065 13.776c.912 4.705 1.197 8.805.832 11.427l-.043.3z" fill="#E2001A" stroke="#fff" stroke-width=".57" stroke-miterlimit="22.93"/><path fill-rule="evenodd" clip-rule="evenodd" d="M27.814 16.917c-1.07-2.31-4.28-4.964-8.02-6.996-2.954-1.603-6.224-2.8-9.02-3.116 1.971 1.62 4.015 3.98 5.957 6.801 2.5 3.625 4.85 8.023 6.684 12.58a77.66 77.66 0 014.127 13.982c.796 4.114 1.122 7.8.966 10.495 1.642-2.44 4.492-11.309 6.92-21.252 2.289-9.381 4.112-19.685 4.105-26.526-1.606 1.38-3.418 3.095-5.169 5.155-2.08 2.454-4.069 5.397-5.512 8.86l-.496 1.184-.542-1.167z" fill="#E2001A" stroke="#fff" stroke-width=".57" stroke-miterlimit="22.93"/><path fill-rule="evenodd" clip-rule="evenodd" d="M40.643 1.988c8.373 4.463 14.074 13.257 14.074 23.377 0 14.436-11.593 26.177-26.01 26.49 2.033-2.392 5.26-11.723 7.813-22.178 2.409-9.863 4.304-20.761 4.123-27.69z" fill="#D9DADB"/><path fill-rule="evenodd" clip-rule="evenodd" d="M28.327 16.683C26.125 11.935 15.516 5.904 8.94 6.171c4.79 3.022 10.36 11.312 13.947 20.225 3.943 9.791 5.646 20.358 4.93 25.488 3.002-.23 12.79-35.201 12.251-50.195-3.653 3.012-8.807 7.955-11.744 14.99l.003.004z" fill="#12226C"/><path fill-rule="evenodd" clip-rule="evenodd" d="M27.814 16.917c-1.07-2.31-4.28-4.964-8.02-6.996-2.954-1.603-6.224-2.8-9.02-3.116 1.971 1.62 4.015 3.98 5.957 6.801 2.5 3.624 4.85 8.023 6.684 12.58a77.66 77.66 0 014.127 13.982c.796 4.114 1.122 7.8.966 10.495 1.642-2.44 4.492-11.309 6.92-21.252 2.289-9.381 4.112-19.685 4.105-26.526-1.606 1.38-3.418 3.095-5.169 5.155-2.08 2.454-4.069 5.397-5.512 8.859l-.496 1.185-.542-1.167zm-7.48-7.983c3.414 1.851 6.424 4.24 7.928 6.492 1.44-3.131 3.302-5.83 5.238-8.113 2.14-2.526 4.365-4.536 6.21-6.056l.882-.728.04 1.142c.25 6.906-1.67 17.991-4.116 28.006-2.944 12.062-6.785 22.625-8.659 22.769l-.698.054.098-.692c.365-2.622.08-6.722-.832-11.427a76.677 76.677 0 00-4.066-13.776c-1.805-4.479-4.112-8.802-6.568-12.365-2.37-3.433-4.861-6.15-7.158-7.598l-1.526-.965 1.808-.072c3.331-.133 7.636 1.279 11.415 3.329h.004z" fill="#fff"/><path fill-rule="evenodd" clip-rule="evenodd" d="M27.571 3.4a4.266 4.266 0 014.276 4.258 4.266 4.266 0 01-4.276 4.259 4.266 4.266 0 01-4.275-4.259A4.266 4.266 0 0127.571 3.4z" fill="#BCAA00"/></svg>