<svg width="49" height="48" viewBox="0 0 49 48" fill="none" xmlns="http://www.w3.org/2000/svg"><path d="M33.802 17.1a3 3 0 00-4.2.6l-2.8 3.732L20.164 17a2.999 2.999 0 00-1.664-.5h-6.436A8.955 8.955 0 003.7 22.158l-1.486 3.726a3 3 0 105.572 2.226l1.492-3.724a2.986 2.986 0 012.786-1.886h3.144l-1.07 6.416L6.958 40.4a3.005 3.005 0 005.086 3.2l5.77-9.24.988.74a3.016 3.016 0 011.2 2.4V42a3 3 0 006 0v-4.5a9.034 9.034 0 00-3.6-7.2l-2.142-1.6.662-3.974 2.554 1.702a6 6 0 008.126-1.4l2.8-3.726a3 3 0 00-.6-4.202zM21.5 13.5a5.25 5.25 0 100-10.5 5.25 5.25 0 000 10.5zM41 30v15M35 30h12M44 23.25a.75.75 0 01.75.75M43.25 24a.75.75 0 01.75-.75M44 24.75a.75.75 0 01-.75-.75M44.75 24a.75.75 0 01-.75.75M34.124 17.378L38 13.5M44.497 12.573c2.05-2.05 2.466-4.96.928-6.497-1.538-1.538-4.447-1.123-6.497.927S36.462 11.963 38 13.5c1.538 1.538 4.447 1.123 6.497-.927z" stroke="#D92D20" stroke-width="2" stroke-linecap="round" stroke-linejoin="round"/></svg>