<svg width="48" height="48" viewBox="0 0 48 48" fill="none" xmlns="http://www.w3.org/2000/svg"><g clip-path="url(#clip0_7540_295)" stroke="#D92D20" stroke-width="2" stroke-linecap="round" stroke-linejoin="round"><path d="M9 27.464H7.6a1.982 1.982 0 00-1.75 1l-4.35 12h45l-4.35-12a1.982 1.982 0 00-1.75-1H39"/><path d="M1.5 40.458l.6 3.728c.218 1.336 1 2.272 1.898 2.272H44c.898 0 1.68-.936 1.898-2.272l.6-3.728M15.942 28.458a17.877 17.877 0 012.936-10.948 33.473 33.473 0 012.934-2.988h-7.826c-1.314 0-1.548-.716-1.956-2a2.02 2.02 0 01.978-2l6.848-4.958V1.458s3.912 2.116 5.87 3.11c4.324 2.2 4 4.088 3.924 6.372a2 2 0 01-.372 1.1l-4.53 6.34a14.6 14.6 0 014.89 10.078M33.27 33.262a.952.952 0 01-.222.83 1.109 1.109 0 01-.832.366H13.364a1.105 1.105 0 01-.83-.366.947.947 0 01-.222-.83l.816-3.8c.292-.816 1.224-1 2.148-1h15.03c.924 0 1.854.184 2.146 1l.818 3.8zM38.25 32.958a.75.75 0 110 1.5.75.75 0 010-1.5z"/></g><defs><clipPath id="clip0_7540_295"><path fill="#fff" d="M0 0h48v48H0z"/></clipPath></defs></svg>