<svg width="49" height="48" viewBox="0 0 49 48" fill="none" xmlns="http://www.w3.org/2000/svg"><g clip-path="url(#clip0_7540_196)" stroke="#D92D20" stroke-width="2" stroke-linecap="round" stroke-linejoin="round"><path d="M29 22.5v3a3 3 0 01-3 3h-9L6.544 34.774A3 3 0 012 32.2v-3.7a3 3 0 013-3h6l4.5-3H47M44 22.5V18M7.022 19.5a19.504 19.504 0 0134.358-7.49M44.978 28.502A19.504 19.504 0 0113.552 39.01M26 16.5v-15M26 46.5v-12M18.652 16.5a10.502 10.502 0 0114.706 0M35.488 28.502A10.506 10.506 0 0120.582 33"/></g><defs><clipPath id="clip0_7540_196"><path fill="#fff" transform="translate(.5)" d="M0 0h48v48H0z"/></clipPath></defs></svg>