<svg width="49" height="48" viewBox="0 0 49 48" fill="none" xmlns="http://www.w3.org/2000/svg"><g clip-path="url(#clip0_7540_423)" stroke="#D92D20" stroke-width="2" stroke-linecap="round" stroke-linejoin="round"><path d="M26.072 34.244l5.84.63M25.088 25.084l7.792.842M18.018 1.582a4.5 4.5 0 00-4 4.956l4.036 37.284a3 3 0 003.304 2.66l2.984-.322a3 3 0 002.66-3.304L22.974 5.572a4.499 4.499 0 00-4.956-3.99z"/><path d="M24.5 46.138l.158.022 2.984.322a3 3 0 003.304-2.66l4.028-37.284a4.5 4.5 0 00-8.948-.966L24.5 19.696M26.036 33.908l-8.948.966M25.068 24.96l-8.948.966M5 13.5v33M2 40.5h6M5 1.5a3 3 0 00-3 3v9h6v-9a3 3 0 00-3-3zM44 13.5v33M41 40.5h6M44 1.5a3 3 0 00-3 3v9h6v-9a3 3 0 00-3-3z"/></g><defs><clipPath id="clip0_7540_423"><path fill="#fff" transform="translate(.5)" d="M0 0h48v48H0z"/></clipPath></defs></svg>