<svg width="48" height="48" viewBox="0 0 48 48" fill="none" xmlns="http://www.w3.org/2000/svg"><g clip-path="url(#clip0_7540_897)" stroke="#D92D20" stroke-width="2" stroke-linecap="round" stroke-linejoin="round"><path d="M24 1.5a22.5 22.5 0 100 45 22.5 22.5 0 000-45z"/><path d="M17.79 33.508l-3.82-11.8L24 14.416l10.03 7.292-3.82 11.8H17.79zM32.602 3.202L24 9l-8.602-5.798M29.198 45.896l4.278-8.732 9.768-1.5M46.428 25.818l-6.854-6.826 1.47-9.678M24 9v5.416M34.03 21.708l5.544-2.716M1.572 25.818l6.854-6.826-1.47-9.678M13.97 21.708l-5.544-2.716M30.21 33.508l3.266 3.656M18.802 45.896l-4.278-8.732-9.768-1.5M17.79 33.508l-3.266 3.656"/></g><defs><clipPath id="clip0_7540_897"><path fill="#fff" d="M0 0h48v48H0z"/></clipPath></defs></svg>