<svg width="49" height="48" viewBox="0 0 49 48" fill="none" xmlns="http://www.w3.org/2000/svg"><path d="M39.5 17a5.25 5.25 0 100-10.5 5.25 5.25 0 000 10.5zM15.258 22.614l7.662-4.79-2.62-3.004a2.999 2.999 0 114.516-3.95l9.03 10.33M2 39.5a9.331 9.331 0 007.5-3.8 9.298 9.298 0 0015 0 9.299 9.299 0 0015 0 9.332 9.332 0 007.5 3.8M2 30.5a9.334 9.334 0 007.5-3.8 9.298 9.298 0 0015 0 9.299 9.299 0 0015 0 9.332 9.332 0 007.5 3.8" stroke="#D92D20" stroke-width="2" stroke-linecap="round" stroke-linejoin="round"/></svg>