<svg width="48" height="48" viewBox="0 0 48 48" fill="none" xmlns="http://www.w3.org/2000/svg"><g clip-path="url(#clip0_7540_356)" stroke="#D92D20" stroke-width="2" stroke-linecap="round" stroke-linejoin="round"><path d="M28.5 12.75a5.25 5.25 0 100-10.5 5.25 5.25 0 000 10.5zM44.612 16.714l-4.56-1.826a10.558 10.558 0 00-8.162.156L23.6 18.73a3.037 3.037 0 01-2.338.044l-5.15-2.06a3 3 0 10-2.226 5.572l5.15 2.06a9.057 9.057 0 006.464.082V28.5l-3.6 2.698A6.024 6.024 0 0019.5 36v7.5a3 3 0 106 0V36l4.5-3.374V36a2.979 2.979 0 00.428 1.544l4.5 7.5a3.001 3.001 0 105.144-3.088L36 35.168V20.144a4.469 4.469 0 011.824.316l4.562 1.826a3 3 0 102.226-5.572zM8.818 12.712c2.255-1.044 2.955-4.328 1.563-7.335C8.99 2.369 6.033.777 3.777 1.822 1.522 2.866.822 6.15 2.214 9.157c1.392 3.007 4.348 4.599 6.604 3.555zM9.546 12.252l3.336 5.122M4.5 30a3 3 0 100-6 3 3 0 000 6z"/></g><defs><clipPath id="clip0_7540_356"><path fill="#fff" d="M0 0h48v48H0z"/></clipPath></defs></svg>