<svg width="49" height="48" viewBox="0 0 49 48" fill="none" xmlns="http://www.w3.org/2000/svg"><g clip-path="url(#clip0_7521_135104)"><g clip-path="url(#clip1_7521_135104)" stroke="#D92D20" stroke-width="2" stroke-linecap="round" stroke-linejoin="round"><path d="M24.5 46.5C36.926 46.5 47 36.426 47 24 47 11.573 36.926 1.5 24.5 1.5S2 11.573 2 24c0 12.426 10.074 22.5 22.5 22.5zM41.722 38.48A22.664 22.664 0 0024.5 24M3.23 31.358A22.317 22.317 0 0024.5 24M28.278 1.816A22.332 22.332 0 0024.5 24M10.384 31.6A22.508 22.508 0 017.958 8.748M17.914 29.234a22.504 22.504 0 01.6-26.932M24.65 7.91a22.512 22.512 0 0121 8.414M23.1 15.722a22.628 22.628 0 0123.46 12.76M38.162 32.15A22.522 22.522 0 0119.9 46.036M32.202 26.922A22.502 22.502 0 019.036 40.348"/></g></g><defs><clipPath id="clip0_7521_135104"><path fill="#fff" transform="translate(.5)" d="M0 0h48v48H0z"/></clipPath><clipPath id="clip1_7521_135104"><path fill="#fff" transform="translate(.5)" d="M0 0h48v48H0z"/></clipPath></defs></svg>