<svg width="49" height="48" viewBox="0 0 49 48" fill="none" xmlns="http://www.w3.org/2000/svg"><g clip-path="url(#clip0_7540_146)" stroke="#D92D20" stroke-width="2" stroke-linecap="round" stroke-linejoin="round"><path d="M27.498 17.25a5.25 5.25 0 100-10.5 5.25 5.25 0 000 10.5z"/><path d="M33.5 46.5v-7.6a28.352 28.352 0 009.16 7.294 3 3 0 002.682-5.368C43.942 40.128 35 35.256 35 27.364l6.244-3.12a9.023 9.023 0 004.8-9.818l-2.046-8.104A3 3 0 1038.116 7.5l2.042 8.1a3 3 0 01-1.6 3.274L31.05 22.62A41.677 41.677 0 0112.5 27a3 3 0 000 6 47.696 47.696 0 0015-2.438V46.5M7.998 13.5a6 6 0 100-12 6 6 0 000 12z"/></g><defs><clipPath id="clip0_7540_146"><path fill="#fff" transform="translate(.5)" d="M0 0h48v48H0z"/></clipPath></defs></svg>